<svg width="297" height="301" viewBox="0 0 297 301" fill="none" xmlns="http://www.w3.org/2000/svg">
<path d="M231.417 0.0170637C233.339 0.849095 233.339 0.849095 235.089 4.16159C236.927 9.61601 236.595 15.1656 236.339 20.8491C237.184 20.1852 238.03 19.5214 238.901 18.8374C255.545 5.84909 255.545 5.84909 259.339 5.84909C262.769 16.141 258.739 26.0519 255.339 35.7866C254.62 37.881 253.906 39.9769 253.199 42.0751C252.561 43.9612 251.909 45.8427 251.257 47.7239C250.151 50.9459 250.151 50.9459 250.339 54.8491C252.225 56.4026 252.225 56.4026 254.651 57.6616C259.166 60.4921 260.828 62.6044 262.339 67.8491C262.402 68.5408 262.465 69.2324 262.531 69.945C262.956 73.6718 263.502 76.0625 266.291 78.6833C268.89 80.4255 271.534 81.9682 274.276 83.4741C276.185 84.5845 278.094 85.6951 280.003 86.8061C280.922 87.3277 281.842 87.8493 282.789 88.3867C285.979 90.2161 289.064 92.1643 292.151 94.1616C293.398 94.9602 293.398 94.9602 294.671 95.7749C295.221 96.1294 295.772 96.4839 296.339 96.8491C292.652 106.493 286.547 112.245 277.339 116.849C274.942 116.945 272.568 116.986 270.171 116.99C268.705 117.008 267.24 117.028 265.774 117.048C263.468 117.077 261.163 117.099 258.856 117.1C248.991 116.766 248.991 116.766 239.975 120.021C237.223 122.973 235.775 125.087 234.339 128.849C234.596 131.516 234.987 133.868 235.55 136.462C237.243 147.321 238.3 158.688 233.339 168.849C230.093 173.041 226.377 176.552 222.409 180.037C221.609 180.741 221.609 180.741 220.793 181.459C217.422 184.403 214.007 187.295 210.589 190.183C210.011 190.671 209.434 191.159 208.839 191.662C207.973 192.393 207.973 192.393 207.09 193.139C193.486 204.721 182.821 215.021 181.04 233.52C180.523 240.5 180.501 247.421 180.776 254.412C180.806 255.173 180.836 255.935 180.867 256.72C181.277 266.146 182.106 275.493 183.339 284.849C184.019 284.881 184.7 284.914 185.401 284.947C186.297 285.009 187.193 285.071 188.116 285.134C189.446 285.214 189.446 285.214 190.803 285.295C194.537 286.111 196.081 288.173 198.28 291.158C200.685 294.999 200.339 295.464 200.339 300.849C190.439 300.849 180.539 300.849 170.339 300.849C169.926 297.714 169.514 294.579 169.089 291.349C168.003 283.233 166.74 275.166 165.339 267.099C163.299 255.296 161.914 243.446 160.664 231.536C160.446 229.734 160.166 227.937 159.828 226.153C158.71 218.608 158.831 210.907 158.714 203.292C158.672 201.17 158.611 199.048 158.529 196.927C157.828 178.312 157.828 178.312 161.578 173.167C164.044 170.674 166.344 168.664 169.339 166.849C169.669 166.849 169.999 166.849 170.339 166.849C170.236 168.128 170.132 169.407 170.026 170.724C170.417 174.59 171.254 175.766 174.089 178.533C177.385 181.148 180.836 183.521 184.339 185.849C184.896 186.239 185.454 186.629 186.028 187.03C188.968 189.214 188.968 189.214 192.464 189.849C195.009 188.492 196.503 187.089 198.339 184.849C198.954 181.829 198.954 181.829 198.885 178.428C198.904 177.127 198.924 175.826 198.944 174.486C198.946 173.07 198.947 171.655 198.948 170.24C198.963 168.788 198.98 167.336 198.998 165.885C199.042 162.071 199.062 158.257 199.077 154.443C199.1 149.863 199.152 145.283 199.2 140.704C199.269 133.752 199.3 126.801 199.339 119.849C180.529 119.849 161.719 119.849 142.339 119.849C150.181 107.526 150.181 107.526 154.026 102.224C154.887 101.03 155.748 99.8364 156.608 98.6421C157.053 98.0264 157.497 97.4107 157.954 96.7763C160.395 93.378 162.804 89.9568 165.214 86.5366C165.712 85.8293 166.211 85.122 166.725 84.3933C167.745 82.9467 168.765 81.5 169.785 80.0532C171.887 77.071 173.993 74.0906 176.099 71.1108C177.125 69.6565 178.15 68.2008 179.172 66.7436C181.246 63.7901 183.33 60.8609 185.507 57.9819C189.389 52.7999 191.451 48.0536 193.323 41.8647C196.265 33.1303 201.509 25.8739 207.339 18.8491C207.992 17.977 207.992 17.977 208.659 17.0874C212.698 11.8995 224.735 -0.523014 231.417 0.0170637Z" fill="#C75C25"/>
<path d="M72.424 119.622C73.1173 119.622 73.8105 119.621 74.5247 119.621C76.8027 119.622 79.0804 119.638 81.3584 119.654C82.943 119.657 84.5277 119.66 86.1124 119.662C90.2734 119.67 94.4342 119.69 98.595 119.712C102.845 119.732 107.095 119.741 111.345 119.751C119.676 119.773 128.007 119.807 136.339 119.849C130.112 127.245 130.112 127.245 126.788 130.279C126.176 130.842 125.564 131.406 124.933 131.987C124.304 132.56 123.675 133.133 123.026 133.724C121.705 134.944 120.385 136.166 119.065 137.388C118.43 137.976 117.795 138.564 117.141 139.17C114.695 141.449 112.288 143.758 109.901 146.099C109.201 146.785 108.501 147.471 107.78 148.177C106.121 149.734 106.121 149.734 106.339 151.849C114.259 156.139 122.179 160.429 130.339 164.849C128.157 169.213 126.331 171.109 122.339 173.849C118.743 173.514 115.961 172.322 112.8 170.634C111.972 170.195 111.145 169.756 110.292 169.304C109.016 168.615 109.016 168.615 107.714 167.912C106.855 167.456 105.997 167 105.112 166.531C101.755 164.739 98.5082 162.962 95.3388 160.849C95.365 162.104 95.3912 163.36 95.4182 164.653C95.5092 169.344 95.5663 174.035 95.6135 178.726C95.6385 180.75 95.6725 182.775 95.716 184.798C95.7772 187.721 95.8051 190.641 95.8271 193.564C95.8529 194.458 95.8787 195.352 95.9053 196.273C95.9103 207.735 88.964 215.015 81.3388 222.849C80.6978 223.51 80.0568 224.172 79.3964 224.853C77.2404 227.069 75.0734 229.274 72.9013 231.474C71.8353 232.56 71.8353 232.56 70.7478 233.668C70.0778 234.339 69.4079 235.009 68.7177 235.701C68.1152 236.307 67.5126 236.914 66.8918 237.539C65.3388 238.849 65.3388 238.849 63.3388 238.849C62.8438 240.334 62.8438 240.334 62.3388 241.849C61.6788 241.849 61.0188 241.849 60.3388 241.849C60.3388 242.509 60.3388 243.169 60.3388 243.849C58.9834 245.181 58.9834 245.181 57.1513 246.662C54.0368 249.241 51.1616 251.948 48.3388 254.849C47.808 255.264 47.2771 255.679 46.7302 256.106C44.6758 258.68 44.9036 260.791 44.8271 264.048C44.7917 265.257 44.7562 266.465 44.7197 267.71C44.6971 268.973 44.6746 270.236 44.6513 271.537C44.6172 272.811 44.583 274.085 44.5478 275.398C44.4652 278.548 44.3961 281.698 44.3388 284.849C45.7594 285.055 45.7594 285.055 47.2087 285.265C50.503 285.88 51.7362 286.557 54.1513 288.787C54.7353 289.311 55.3192 289.836 55.9209 290.376C59.2958 293.882 58.3388 295.179 58.3388 300.849C48.4388 300.849 38.5388 300.849 28.3388 300.849C28.1495 293.446 27.9693 286.052 27.8731 278.649C27.8257 275.201 27.7626 271.755 27.6599 268.308C27.5424 264.344 27.4995 260.381 27.4599 256.415C27.4135 255.193 27.367 253.971 27.3192 252.712C27.3142 244.195 27.3142 244.195 30.2617 240.323C31.8457 238.821 33.4598 237.349 35.1026 235.911C40.7383 230.714 41.5336 224.922 41.8847 217.493C41.9422 214.621 41.9466 211.749 41.9482 208.876C41.9632 207.342 41.9799 205.808 41.9983 204.274C42.0417 200.264 42.0619 196.255 42.077 192.245C42.0967 188.142 42.1387 184.04 42.1787 179.937C42.2537 171.908 42.3042 163.879 42.3388 155.849C41.6788 155.849 41.0188 155.849 40.3388 155.849C40.0707 156.447 39.8026 157.045 39.5263 157.662C38.3388 159.849 38.3388 159.849 36.7847 161.111C34.669 163.654 34.9874 165.573 35.0175 168.846C35.0203 170.081 35.0231 171.316 35.026 172.589C35.0341 173.249 35.0421 173.909 35.0504 174.589C35.0734 176.663 35.0745 178.735 35.0691 180.809C35.0564 186.704 35.0732 192.599 35.1293 198.494C35.1622 202.103 35.1607 205.71 35.1383 209.319C35.1366 210.689 35.1477 212.058 35.1724 213.428C35.3843 225.463 35.3843 225.463 31.185 230.348C29.928 231.542 28.6463 232.711 27.3388 233.849C26.276 234.94 25.2205 236.038 24.1733 237.144C23.1191 238.205 22.0623 239.262 21.0029 240.318C20.4381 240.884 19.8732 241.449 19.2913 242.032C18.1145 243.21 16.9365 244.386 15.7573 245.561C13.9434 247.369 12.1351 249.183 10.3271 250.997C9.17769 252.146 8.02796 253.295 6.87788 254.443C6.33629 254.986 5.79469 255.53 5.23668 256.09C1.45382 259.849 1.45382 259.849 0.338822 259.849C0.245125 251.572 0.174558 243.295 0.13157 235.017C0.110912 231.172 0.0830119 227.326 0.0370647 223.481C-0.30484 194.065 1.3055 168.764 22.7138 146.099C29.9609 139.273 38.3616 134.592 47.186 130.133C51.2778 128.045 54.9802 125.805 58.6115 122.984C63.1279 120.016 67.0808 119.603 72.424 119.622Z" fill="#CA5B24"/>
<path d="M189.339 52.8491C189.669 52.8491 189.999 52.8491 190.339 52.8491C191.703 76.6335 191.703 76.6335 185.065 85.2515C183.339 86.8491 183.339 86.8491 181.339 86.8491C181.091 87.571 180.844 88.2929 180.589 89.0366C179.227 92.0997 177.449 94.2625 175.339 96.8491C175.009 97.8391 174.679 98.8291 174.339 99.8491C173.679 99.8491 173.019 99.8491 172.339 99.8491C172.05 100.612 171.761 101.375 171.464 102.162C170.339 104.849 170.339 104.849 168.339 107.849C182.859 107.849 197.379 107.849 212.339 107.849C212.669 128.309 212.999 148.769 213.339 169.849C219.206 164.922 219.206 164.922 220.031 161.58C220.005 160.869 219.98 160.157 219.953 159.424C219.934 158.197 219.934 158.197 219.914 156.945C219.854 155.647 219.854 155.647 219.792 154.322C219.771 152.459 219.752 150.597 219.733 148.734C219.669 145.819 219.589 142.906 219.487 139.992C218.983 123.693 218.983 123.693 222.298 119.185C224.908 117.348 227.432 116.166 230.339 114.849C231.719 113.811 233.097 112.77 234.472 111.726C239.828 108.103 244.399 108.068 250.718 108.263C251.77 108.272 252.823 108.28 253.908 108.289C257.24 108.322 260.57 108.398 263.901 108.474C266.173 108.504 268.444 108.532 270.716 108.556C276.258 108.622 281.798 108.722 287.339 108.849C280.029 116.577 280.029 116.577 273.853 117.202C272.541 117.197 271.229 117.191 269.878 117.185C268.422 117.198 266.966 117.211 265.511 117.224C263.237 117.228 260.965 117.224 258.691 117.209C248.921 116.813 248.921 116.813 239.987 120.013C237.227 122.969 235.777 125.08 234.339 128.849C234.596 131.516 234.987 133.868 235.55 136.462C237.243 147.321 238.3 158.688 233.339 168.849C230.093 173.041 226.377 176.552 222.409 180.037C221.609 180.741 221.609 180.741 220.793 181.459C217.422 184.403 214.007 187.295 210.589 190.183C210.011 190.671 209.434 191.159 208.839 191.662C207.973 192.393 207.973 192.393 207.09 193.139C193.486 204.721 182.821 215.021 181.04 233.52C180.523 240.5 180.501 247.421 180.776 254.412C180.806 255.174 180.836 255.935 180.867 256.72C181.277 266.146 182.106 275.493 183.339 284.849C184.019 284.881 184.7 284.914 185.401 284.947C186.297 285.009 187.193 285.071 188.116 285.134C189.003 285.187 189.89 285.24 190.803 285.295C194.537 286.111 196.081 288.173 198.28 291.158C200.685 295 200.339 295.464 200.339 300.849C190.439 300.849 180.539 300.849 170.339 300.849C169.926 297.714 169.514 294.579 169.089 291.349C168.003 283.233 166.74 275.166 165.339 267.099C163.299 255.296 161.914 243.446 160.664 231.536C160.446 229.734 160.166 227.937 159.828 226.153C158.71 218.608 158.831 210.907 158.714 203.292C158.672 201.17 158.611 199.048 158.529 196.927C157.828 178.312 157.828 178.312 161.578 173.167C164.044 170.674 166.344 168.664 169.339 166.849C169.669 166.849 169.999 166.849 170.339 166.849C170.236 168.128 170.132 169.407 170.026 170.724C170.417 174.59 171.254 175.766 174.089 178.533C177.385 181.148 180.836 183.521 184.339 185.849C184.896 186.239 185.454 186.629 186.028 187.03C188.968 189.214 188.968 189.214 192.464 189.849C195.009 188.492 196.503 187.089 198.339 184.849C198.954 181.829 198.954 181.829 198.885 178.428C198.904 177.127 198.924 175.826 198.944 174.486C198.946 173.07 198.947 171.655 198.948 170.24C198.963 168.788 198.98 167.337 198.998 165.885C199.042 162.071 199.062 158.257 199.077 154.443C199.1 149.863 199.152 145.283 199.2 140.704C199.269 133.752 199.3 126.801 199.339 119.849C180.529 119.849 161.719 119.849 142.339 119.849C150.181 107.526 150.181 107.526 154.026 102.224C154.887 101.03 155.748 99.8364 156.608 98.6421C157.053 98.0264 157.497 97.4107 157.954 96.7764C160.395 93.3781 162.804 89.9567 165.214 86.5366C165.712 85.8308 166.21 85.1249 166.723 84.3977C169.337 80.691 171.949 76.9819 174.557 73.271C175.086 72.5199 175.615 71.7688 176.16 70.9949C177.159 69.5749 178.157 68.1542 179.155 66.7327C181.61 63.2461 184.097 59.7848 186.628 56.353C187.122 55.6822 187.617 55.0113 188.126 54.3201C188.526 53.8347 188.927 53.3492 189.339 52.8491Z" fill="#11592F"/>
<path d="M170.339 166.849C170.184 168.767 170.184 168.767 170.026 170.724C170.424 174.542 171.239 175.75 174.019 178.498C177.325 181.142 180.799 183.531 184.339 185.849C185.21 186.424 186.082 186.999 186.98 187.591C188.743 188.714 190.537 189.789 192.339 190.849C192.009 191.509 191.679 192.169 191.339 192.849C190.679 192.849 190.019 192.849 189.339 192.849C189.091 193.468 188.844 194.087 188.589 194.724C187.339 196.849 187.339 196.849 183.339 198.849C183.339 227.229 183.339 255.609 183.339 284.849C186.639 285.179 189.939 285.509 193.339 285.849C196.412 288.814 198.466 291.104 200.339 294.849C200.339 296.829 200.339 298.809 200.339 300.849C190.439 300.849 180.539 300.849 170.339 300.849C169.926 297.714 169.514 294.579 169.089 291.349C168.003 283.233 166.741 275.166 165.339 267.099C163.299 255.296 161.914 243.446 160.664 231.536C160.446 229.734 160.166 227.937 159.829 226.153C158.71 218.608 158.831 210.907 158.714 203.292C158.673 201.17 158.611 199.048 158.53 196.927C157.828 178.312 157.828 178.312 161.579 173.167C167.827 166.849 167.827 166.849 170.339 166.849Z" fill="#C75921"/>
<path d="M103.339 197.849C108.944 199.427 113.689 202.113 118.714 204.974C119.545 205.442 120.377 205.91 121.233 206.392C123.271 207.54 125.306 208.692 127.339 209.849C127.091 221.746 113.831 230.302 105.839 238.037C105.228 238.62 104.617 239.202 103.987 239.803C102.205 241.507 100.443 243.228 98.6825 244.955C98.1306 245.472 97.5787 245.99 97.01 246.524C95.2951 248.158 95.2951 248.158 93.3387 250.849C93.4004 254.239 94.6087 256.733 96.2294 259.669C96.6063 260.365 96.9831 261.06 97.3715 261.777C97.7732 262.502 98.1749 263.227 98.5887 263.974C101.367 269.009 103.772 273.858 105.714 279.287C106.708 281.886 106.708 281.886 108.339 283.849C111.187 284.923 113.719 285.276 116.745 285.552C120.353 285.965 121.981 287.123 124.339 289.849C126.427 293.882 127.339 296.285 127.339 300.849C118.099 300.849 108.859 300.849 99.3387 300.849C95.4012 293.849 95.4012 293.849 94.0741 291.487C92.0409 287.868 90.002 284.253 87.9481 280.646C83.5012 272.822 79.2865 264.94 75.3387 256.849C74.2158 254.598 73.0908 252.348 71.9637 250.099C71.0887 248.349 70.2137 246.599 69.3387 244.849C69.9987 243.859 70.6587 242.869 71.3387 241.849C71.9987 241.849 72.6587 241.849 73.3387 241.849C73.6687 240.859 73.9987 239.869 74.3387 238.849C74.9987 238.849 75.6587 238.849 76.3387 238.849C76.5871 238.271 76.8355 237.693 77.0914 237.098C78.5227 234.517 80.148 232.893 82.2958 230.873C83.0789 230.118 83.862 229.364 84.6688 228.587C86.3059 227.029 87.9491 225.477 89.5985 223.931C97.5176 216.265 101.422 208.655 103.339 197.849Z" fill="#10150F"/>
<path d="M149.64 128.361C150.831 128.368 152.023 128.375 153.25 128.382C157.051 128.41 160.851 128.473 164.651 128.537C167.23 128.562 169.809 128.584 172.388 128.605C178.706 128.656 185.021 128.754 191.339 128.849C191.339 146.009 191.339 163.169 191.339 180.849C190.019 180.189 188.699 179.529 187.339 178.849C186.567 178.495 185.795 178.141 184.999 177.776C182.348 176.349 180.398 175.059 178.339 172.849C177.23 168.676 177.481 164.754 177.776 160.474C177.837 158.798 177.837 158.798 177.899 157.087C178.005 154.337 178.153 151.595 178.339 148.849C177.679 148.849 177.019 148.849 176.339 148.849C176.073 149.441 175.808 150.032 175.534 150.642C174.305 152.911 173.055 154.368 171.214 156.162C170.675 156.694 170.136 157.226 169.581 157.775C167.651 159.56 165.684 161.273 163.69 162.986C158.84 167.211 154.349 171.766 149.839 176.349C144.72 181.55 139.579 186.62 134.04 191.375C132.052 193.098 130.179 194.908 128.339 196.787C127.761 197.373 127.184 197.96 126.589 198.564C126.176 198.988 125.764 199.412 125.339 199.849C120.499 198.084 116.055 195.654 111.526 193.224C110.738 192.804 109.95 192.384 109.138 191.951C107.203 190.919 105.271 189.884 103.339 188.849C103.339 183.899 103.339 178.949 103.339 173.849C104.447 174.415 105.556 174.981 106.698 175.564C108.162 176.305 109.625 177.046 111.089 177.787C111.818 178.16 112.548 178.533 113.3 178.917C114.009 179.275 114.718 179.633 115.448 180.001C116.422 180.496 116.422 180.496 117.416 181.001C119.434 181.891 121.145 182.574 123.339 182.849C125.464 181.076 127.234 179.375 129.089 177.349C132.341 173.89 135.601 170.565 139.206 167.47C144.391 163.007 149.104 158.1 153.866 153.195C154.545 152.504 155.225 151.814 155.925 151.103C156.534 150.477 157.143 149.851 157.77 149.207C159.339 147.849 158.339 147.349 160.339 147.349C160.339 146.689 161.339 146.529 161.339 145.849C162.989 144.199 164.639 142.549 166.339 140.849C153.139 140.849 139.939 140.849 126.339 140.849C128.319 138.539 130.299 136.229 132.339 133.849C133.034 132.89 133.729 131.93 134.445 130.942C139.141 127.545 144 128.235 149.64 128.361Z" fill="#0F130E"/>
<path d="M219.339 192.849C220.337 196.018 220.302 198.304 219.75 201.567C219.519 202.964 219.519 202.964 219.284 204.39C219.11 205.391 218.936 206.392 218.757 207.423C218.583 208.462 218.408 209.5 218.229 210.57C217.858 212.769 217.484 214.967 217.106 217.164C216.532 220.505 215.968 223.848 215.407 227.191C215.045 229.331 214.683 231.471 214.319 233.611C214.152 234.602 213.984 235.593 213.811 236.614C213.061 240.966 212.261 245.275 211.241 249.573C210.33 253.567 210.028 257.405 209.925 261.509C209.906 262.185 209.886 262.86 209.866 263.556C209.807 265.674 209.76 267.793 209.714 269.912C209.676 271.364 209.637 272.817 209.597 274.269C209.502 277.796 209.417 281.322 209.339 284.849C211.314 284.79 213.29 284.731 215.265 284.672C220.024 285.078 223.131 288.641 226.339 291.849C226.834 296.304 226.834 296.304 227.339 300.849C220.739 300.849 214.139 300.849 207.339 300.849C206.999 298.343 206.999 298.343 206.651 295.787C205.518 289.665 203.716 285.229 198.526 281.572C196.841 280.585 195.092 279.709 193.339 278.849C192.679 278.519 192.019 278.189 191.339 277.849C186.258 224.573 186.258 224.573 197.573 210.83C203.899 203.799 211.423 197.979 219.339 192.849Z" fill="#0E130D"/>
<path d="M34.3389 163.849C34.5016 171.795 34.6257 179.739 34.7016 187.686C34.738 191.377 34.7873 195.066 34.867 198.756C34.9434 202.323 34.985 205.888 35.003 209.455C35.0221 211.467 35.0767 213.478 35.132 215.49C35.1363 225.753 35.1363 225.753 31.1922 230.341C29.9327 231.537 28.6487 232.708 27.3389 233.849C26.276 234.94 25.2205 236.038 24.1734 237.144C23.1192 238.205 22.0623 239.263 21.0029 240.318C20.4381 240.884 19.8733 241.449 19.2914 242.032C18.1146 243.21 16.9366 244.386 15.7573 245.561C13.9435 247.369 12.1351 249.183 10.3272 250.998C9.17775 252.146 8.02802 253.295 6.87794 254.443C6.06555 255.258 6.06555 255.258 5.23674 256.09C1.45388 259.849 1.45388 259.849 0.338882 259.849C0.315692 251.33 0.297934 242.811 0.287071 234.292C0.281857 230.336 0.274785 226.38 0.263443 222.425C0.252562 218.606 0.246597 214.787 0.244007 210.968C0.242162 209.512 0.238556 208.056 0.23315 206.601C0.225871 204.559 0.224894 202.517 0.225357 200.475C0.223136 199.314 0.220916 198.153 0.218628 196.956C0.327992 194.13 0.689997 191.595 1.33888 188.849C5.16388 190.467 8.687 192.627 11.3389 195.849C11.8796 198.85 12.0494 201.018 11.9248 203.994C11.9163 204.763 11.9078 205.533 11.8991 206.326C11.8656 208.773 11.7904 211.216 11.7139 213.662C11.6838 215.325 11.6564 216.988 11.6319 218.652C11.5659 222.719 11.4624 226.783 11.3389 230.849C12.6313 229.725 13.9228 228.6 15.2139 227.474C15.9332 226.848 16.6525 226.221 17.3936 225.576C20.3639 223.245 20.3639 223.245 21.5433 219.898C21.5136 218.702 21.5136 218.702 21.4832 217.482C21.4675 216.577 21.4519 215.672 21.4358 214.739C21.4014 213.264 21.4014 213.264 21.3662 211.759C21.3524 209.674 21.3414 207.589 21.333 205.503C21.3127 202.217 21.277 198.935 21.1917 195.65C20.7058 175.408 20.7058 175.408 26.2992 169.273C32.162 163.849 32.162 163.849 34.3389 163.849Z" fill="#145931"/>
<path d="M229.339 90.8492C231.172 91.6527 232.979 92.519 234.761 93.4312C235.787 93.9514 236.813 94.4715 237.87 95.0074C238.932 95.5533 239.994 96.0992 241.089 96.6617C248.1 100.241 255.098 103.754 262.339 106.849C262.339 107.179 262.339 107.509 262.339 107.849C261.725 107.843 261.111 107.836 260.478 107.83C245.483 107.253 245.483 107.253 232.632 113.767C230.339 115.849 230.339 115.849 228.101 116.69C224.967 118.063 223.42 119.095 221.339 121.849C219.762 128.598 220.487 135.915 220.714 142.787C220.799 145.671 220.87 148.552 220.897 151.437C220.915 153.228 220.965 155.018 221.053 156.806C221.097 160.545 221.014 162.918 218.776 166.005C217.041 167.774 215.329 169.375 213.339 170.849C213.009 170.849 212.679 170.849 212.339 170.849C212.339 150.059 212.339 129.269 212.339 107.849C197.819 107.849 183.299 107.849 168.339 107.849C170.339 102.849 170.339 102.849 172.339 100.849C175.193 100.594 175.193 100.594 178.815 100.576C180.126 100.555 181.437 100.535 182.788 100.513C184.868 100.491 186.948 100.474 189.028 100.468C197.261 100.429 203.287 100.234 210.339 95.8492C212.078 95.1142 213.826 94.4008 215.589 93.7242C217.954 92.8129 220.143 91.9655 222.323 90.6695C225.061 89.5554 226.493 90.1016 229.339 90.8492Z" fill="#F9FAF8"/>
<path d="M161.339 232.849C163.377 234.123 165.377 235.46 167.339 236.849C167.339 237.509 167.339 238.169 167.339 238.849C167.87 239.094 168.401 239.339 168.948 239.591C175.156 242.858 180.541 246.161 183.339 252.849C184.908 263.391 184.073 274.258 183.339 284.849C184.019 284.881 184.7 284.914 185.401 284.947C186.297 285.009 187.193 285.071 188.116 285.134C189.446 285.214 189.446 285.214 190.803 285.295C194.537 286.111 196.081 288.173 198.28 291.158C200.685 295 200.339 295.464 200.339 300.849C190.439 300.849 180.539 300.849 170.339 300.849C169.926 297.714 169.514 294.579 169.089 291.349C167.994 283.147 166.702 274.999 165.276 266.849C163.316 255.559 162.193 244.271 161.339 232.849Z" fill="#10140E"/>
<path d="M28.3387 243.849C30.6487 245.829 32.9587 247.809 35.3387 249.849C36.6419 250.878 36.6419 250.878 37.9713 251.927C41.546 254.997 43.9917 257.318 45.0541 262.006C45.2225 265.517 45.1283 268.904 44.9012 272.412C44.8606 273.611 44.82 274.811 44.7782 276.046C44.6728 278.985 44.5255 281.915 44.3387 284.849C45.7593 285.055 45.7593 285.055 47.2086 285.265C50.5029 285.88 51.7361 286.557 54.1512 288.787C54.7352 289.311 55.3191 289.836 55.9208 290.376C59.2957 293.882 58.3387 295.179 58.3387 300.849C48.4387 300.849 38.5387 300.849 28.3387 300.849C28.3387 282.039 28.3387 263.229 28.3387 243.849Z" fill="#10140F"/>
<path d="M219.339 192.849C220.838 196.872 220.022 200.744 219.405 204.869C219.29 205.645 219.174 206.422 219.055 207.223C218.805 208.865 218.55 210.506 218.29 212.147C218.032 213.816 217.789 215.487 217.561 217.16C215.423 232.839 215.423 232.839 210.39 237.208C209.057 238.115 207.708 238.999 206.339 239.849C204.185 241.979 202.092 244.152 200.003 246.345C198.339 247.849 198.339 247.849 196.339 247.849C196.339 248.509 196.339 249.169 196.339 249.849C193.839 251.474 191.839 251.474 189.339 252.849C184.985 228.421 186.746 226.887 192.339 217.16C199.534 207.106 206.339 200.349 219.339 192.849Z" fill="#C65923"/>
<path d="M259.339 5.84912C262.927 16.615 258.428 26.9069 254.839 37.0366C254.307 38.5758 253.777 40.1155 253.249 41.6558C251.963 45.3932 250.657 49.1229 249.339 52.8491C247.669 52.1898 246.003 51.5217 244.339 50.8491C243.247 50.4177 243.247 50.4177 242.133 49.9775C239.778 48.8148 238.142 47.7735 236.339 45.8491C235.159 41.8701 235.265 38.0962 235.401 33.9741C235.379 32.9106 235.356 31.8472 235.333 30.7515C235.402 25.4742 235.691 21.8038 239.44 17.8999C240.704 16.8389 242.004 15.8199 243.339 14.8491C244.257 14.169 244.257 14.169 245.193 13.4751C246.979 12.222 248.796 11.0578 250.651 9.91162C251.271 9.51395 251.89 9.11627 252.528 8.70654C257.058 5.84912 257.058 5.84912 259.339 5.84912Z" fill="#10140E"/>
<path d="M228.339 11.8491C231.204 45.8516 231.204 45.8516 226.604 53.874C222.114 58.4335 216.52 61.2615 210.339 62.8491C209.679 62.8491 209.019 62.8491 208.339 62.8491C207.555 45.5468 209.122 32.8374 220.339 18.8491C220.83 18.2188 221.321 17.5884 221.827 16.939C225.906 11.8491 225.906 11.8491 228.339 11.8491Z" fill="#FDFCFA"/>
<path d="M151.339 185.849C151.339 194.759 151.339 203.669 151.339 212.849C146.568 211.259 142.814 209.621 138.464 207.224C137.311 206.592 136.159 205.961 134.972 205.31C133.668 204.587 133.668 204.587 132.339 203.849C147.208 185.849 147.208 185.849 151.339 185.849Z" fill="#0F582F"/>
<path d="M11.3387 196.849C13.1658 197.839 14.9928 198.829 16.8752 199.849C18.389 200.661 18.389 200.661 19.9333 201.49C23.5708 204.953 23.3833 207.971 23.3114 212.599C23.3077 213.406 23.3039 214.213 23.3001 215.044C23.058 220.15 22.2464 223.214 18.1209 226.974C14.1734 229.849 14.1734 230.849 11.3387 230.849C11.3387 219.959 11.3387 208.069 11.3387 196.849Z" fill="#F9FAF8"/>
<path d="M118.339 148.849C127.909 148.849 137.479 148.849 147.339 148.849C140.589 156.724 140.589 156.724 137.339 159.849C133.246 158.311 129.444 156.408 125.589 154.349C124.439 153.741 123.289 153.132 122.104 152.505C119.339 150.849 119.339 150.849 118.339 148.849Z" fill="#C35B20"/>
<path d="M284.339 90.8491C288.647 92.4155 292.401 94.5325 296.339 96.8491C294.945 101.284 292.733 103.723 289.339 106.849C283.464 102.099 283.464 102.099 282.339 99.8491C282.08 95.7977 282.034 94.3057 284.339 90.8491Z" fill="#10120C"/>
<path d="M244.026 73.724C245.517 73.7511 245.517 73.7511 247.038 73.7787C247.797 73.8019 248.556 73.8251 249.339 73.849C252.561 79.0248 252.561 79.0248 253.339 80.849C253.009 81.839 252.679 82.829 252.339 83.849C250.441 83.0832 248.546 82.3111 246.651 81.5365C245.068 80.8926 245.068 80.8926 243.452 80.2357C240.585 78.9587 237.988 77.525 235.339 75.849C238.76 73.5684 240.021 73.6298 244.026 73.724Z" fill="#15110A"/>
<path d="M170.339 289.849C170.669 289.849 170.999 289.849 171.339 289.849C171.669 292.819 171.999 295.789 172.339 298.849C180.919 298.849 189.499 298.849 198.339 298.849C198.339 297.529 198.339 296.209 198.339 294.849C198.999 294.849 199.659 294.849 200.339 294.849C200.339 296.829 200.339 298.809 200.339 300.849C190.439 300.849 180.539 300.849 170.339 300.849C170.339 297.219 170.339 293.589 170.339 289.849Z" fill="#2B2C2B"/>
<path d="M228.339 11.8491C228.339 24.7191 228.339 37.5891 228.339 50.8491C228.009 50.8491 227.679 50.8491 227.339 50.8491C226.844 33.5241 226.844 33.5241 226.339 15.8491C224.359 17.8291 222.379 19.8091 220.339 21.8491C219.679 21.5191 219.019 21.1891 218.339 20.8491C219.46 19.5332 220.586 18.2215 221.714 16.9116C222.34 16.1807 222.967 15.4498 223.612 14.6968C226.273 11.8491 226.273 11.8491 228.339 11.8491Z" fill="#FEFDF4"/>
<path d="M193.339 189.849C193.339 190.839 193.339 191.829 193.339 192.849C192.203 193.785 191.03 194.674 189.839 195.537C186.81 198.335 186.362 199.597 185.979 203.794C185.993 205.987 186.088 208.151 186.247 210.338C186.37 212.171 186.364 214.012 186.339 215.849C184.854 216.839 184.854 216.839 183.339 217.849C183.193 214.766 183.105 211.684 183.026 208.599C182.984 207.726 182.942 206.854 182.899 205.955C182.775 199.436 182.775 199.436 185.682 196.412C186.559 195.896 187.436 195.38 188.339 194.849C190.024 193.201 191.696 191.539 193.339 189.849Z" fill="#2B5529"/>
<path d="M207.339 291.849C207.669 291.849 207.999 291.849 208.339 291.849C208.669 294.159 208.999 296.469 209.339 298.849C217.259 298.354 217.259 298.354 225.339 297.849C225.669 296.529 225.999 295.209 226.339 293.849C226.669 296.159 226.999 298.469 227.339 300.849C220.739 300.849 214.139 300.849 207.339 300.849C207.339 297.879 207.339 294.909 207.339 291.849Z" fill="#1F201E"/>
<path d="M28.3387 141.849C28.9987 142.179 29.6587 142.509 30.3387 142.849C26.0487 147.139 21.7587 151.429 17.3387 155.849C16.6787 155.519 16.0187 155.189 15.3387 154.849C17.1269 152.867 18.919 150.888 20.7137 148.912C21.2216 148.348 21.7295 147.784 22.2528 147.203C26.1122 142.962 26.1122 142.962 28.3387 141.849Z" fill="#C3622B"/>
<path d="M290.339 106.849C288.339 108.849 288.339 108.849 285.817 108.984C284.78 108.932 283.743 108.88 282.675 108.826C281.553 108.774 280.432 108.723 279.276 108.669C278.101 108.605 276.925 108.541 275.714 108.474C273.939 108.389 273.939 108.389 272.128 108.302C269.198 108.16 266.268 108.009 263.339 107.849C263.339 107.519 263.339 107.189 263.339 106.849C267.276 106.652 271.213 106.468 275.151 106.287C276.271 106.231 277.39 106.174 278.544 106.117C279.617 106.068 280.69 106.02 281.796 105.97C283.28 105.9 283.28 105.9 284.795 105.827C287.339 105.849 287.339 105.849 290.339 106.849Z" fill="#B56635"/>
<path d="M219.339 192.849C219.964 194.662 219.964 194.662 220.339 196.849C219.349 198.334 219.349 198.334 218.339 199.849C218.009 199.189 217.679 198.529 217.339 197.849C215.689 199.169 214.039 200.489 212.339 201.849C213.894 198.032 216.375 195.657 219.339 192.849Z" fill="#B75516"/>
</svg>
