<svg width="2237" height="2361" viewBox="0 0 2237 2361" fill="none" xmlns="http://www.w3.org/2000/svg">
<g clip-path="url(#clip0_2_9463)">
<path d="M1141.14 1442.83L1132.08 1433.79C1009.77 1305.52 995.737 1257.8 1014.71 1137.17C1029.25 1044.99 1025.31 996.595 997.367 926.082L978.121 877.46L964.536 823.184C967.751 760.405 974.318 727.839 987.042 683.152C1014.8 586.134 1012.04 574.872 951.947 540.723C872.113 495.403 853.003 476.542 871.207 461.119C883.524 450.716 896.566 458.948 903.313 481.427C909.336 501.554 911.826 503.861 954.076 528.692C978.529 543.075 1002.17 559.765 1006.6 565.781C1017.65 580.616 1021.59 574.962 1032.23 528.964C1042.33 485.317 1042.29 485.091 1020.37 471.838C1011.4 466.411 999.767 455.872 994.469 448.409C979.933 427.784 924.189 407.295 864.913 400.827C818.678 395.762 817.365 395.309 817.365 384.409C817.365 369.438 832.535 367.312 851.101 379.66C866.045 389.565 896.611 392.415 896.611 383.866C896.611 370.433 863.418 333.299 846.03 327.329C825.743 320.318 822.256 315.75 825.29 300.281C828.686 282.958 850.015 285.401 859.66 304.171C900.958 384.816 979.163 440.494 1002.35 405.803C1009.64 394.902 990.076 334.882 971.736 311.905C956.204 292.411 966.212 265.997 986.091 274.048C995.918 278.028 996.823 280.968 996.506 307.156C995.827 360.166 1022.63 366.498 1041.29 317.785C1047.04 302.769 1050.98 298.517 1059.18 298.517C1081.28 298.517 1076.43 314.936 1046.09 342.752C1012.49 373.599 1010.45 387.439 1038.98 392.188C1059.77 395.626 1083.72 377.85 1129.82 324.841C1178.59 268.711 1178.14 269.073 1190.46 275.631C1203.09 282.37 1201.82 300.734 1188.33 306.749C1156.22 321.087 1147.8 327.283 1158.03 329.138C1174.65 332.078 1230.8 312.584 1247.2 298.201C1265.67 282.008 1280.8 280.697 1282.56 295.125C1283.42 302.497 1280.34 306.885 1271.33 310.955L1258.88 316.609L1240.77 321.132L1228.31 325.791C1221.47 328.324 1194.49 335.334 1168.31 341.305C1108.9 354.919 1064.79 391.329 1070.5 422.085C1072.58 433.257 1070.68 443.886 1063.8 459.174C1057.73 472.652 1054.97 485.905 1056.37 494.724C1060.17 518.832 1122.17 481.201 1132.76 448.364C1140.73 423.668 1149.93 416.205 1161.29 425.116C1177.1 437.509 1151.65 467.089 1090.11 507.932C1057.87 529.325 1040.25 553.071 1042.47 572.113C1043.78 583.149 1043.78 583.149 1102.65 570.665C1177.91 554.79 1181.04 551.171 1182.44 479.437C1183.48 423.895 1186.52 414.939 1203.59 416.929C1220.21 418.874 1221.84 434.343 1207.44 453.384C1194.12 471.069 1185.75 547.282 1197.16 547.282C1208.16 547.282 1257.38 521.139 1272.01 507.525C1285.91 494.634 1286.23 493.458 1281.16 476.135C1276.77 461.119 1277.13 455.736 1283.24 443.886C1299.41 412.497 1284.24 369.528 1253.58 359.804C1234.74 353.833 1234.11 353.064 1240.77 325.655L1258.88 321.132C1265.35 324.57 1276.86 346.28 1288.63 371.609C1314.62 427.422 1338.12 441.986 1368.55 421.226C1383.41 411.14 1383.41 411.14 1363.71 369.8C1340.89 321.901 1340.25 305.935 1361.31 308.332C1374.22 309.825 1374.35 310.187 1374.35 339.541C1374.35 393.138 1385.72 399.38 1444.99 378.258C1498.79 359.08 1509.61 358.583 1509.97 375.408C1510.2 386.444 1509.34 386.716 1477.42 387.032C1431.59 387.439 1363.17 430.181 1357.42 461.978C1353.52 483.734 1336.68 502.052 1320.6 502.052C1314.62 502.052 1293.43 513.043 1273.5 526.431C1253.53 539.864 1222.74 556.282 1205.04 562.931C1169.26 576.364 1167.36 578.626 1185.2 586.813C1210.47 598.437 1254.53 594.185 1273.96 578.309C1293.88 562.027 1308.69 565.102 1308.69 585.591C1308.69 610.015 1229.99 614.81 1169.67 594.049C1068.64 559.222 1002.39 618.428 988.763 755.701C985.865 784.739 985.865 784.739 1017.07 766.24C1048.31 747.695 1048.31 747.695 1052.84 689.349C1057.37 630.957 1057.37 630.957 1070.95 630.957C1089.2 630.957 1090.74 643.621 1075.71 670.759C1064.07 691.836 1060.58 719.246 1068.37 728.744C1077.11 739.373 1096.36 720.422 1100.21 697.354C1103.6 677.001 1104.33 676.187 1119.04 676.187C1160.89 676.187 1127.51 716.758 1044.6 766.647C981.835 804.414 981.019 807.353 1007.96 894.421L1027.93 958.874L1036.99 990.534C1042.24 1065.16 1040.66 1087.82 1032.55 1137.12C1010.77 1270.1 1022.09 1298.01 1148.02 1422.48C1223.56 1497.11 1234.11 1509.55 1274.55 1571.74C1319.51 1640.9 1392.74 1782.42 1397.72 1809.87C1403.88 1843.8 1388.25 1820.68 1340.8 1725.52C1281.61 1606.93 1224.1 1519.95 1173.97 1473.36L1141.14 1442.83Z" fill="#4963A0"/>
<path d="M1227.18 1406.65L1231.71 1379.51L1236.24 1365.94L1258.88 1347.85L1287.18 1336.18C1302.76 1329.76 1334.86 1319.81 1358.5 1314.06C1409.9 1301.58 1427.33 1291.58 1478.14 1245.45C1511.7 1215.01 1518.04 1210.98 1526.82 1214.69C1544.16 1222.02 1535.74 1240.11 1513.33 1243.78C1496.75 1246.49 1440.01 1289.73 1440.01 1299.68C1440.01 1305.06 1500.74 1302.58 1532.84 1295.88C1573.6 1287.38 1588.99 1271.01 1598.5 1203.11L1607.56 1185.02L1612.09 1180.5C1638.31 1193.48 1638.31 1209.58 1623.59 1219.26C1612.59 1226.45 1595.61 1266.21 1599.27 1276.3C1601.54 1282.49 1651.17 1260.74 1662.76 1248.48C1669.64 1241.24 1670.05 1237.72 1665.57 1224.1C1653.98 1188.69 1688.35 1156.98 1720.41 1173.53C1755.5 1191.67 1746.94 1238.17 1706.55 1248.71C1695.68 1251.51 1675.62 1260.83 1661.9 1269.38C1648.23 1277.93 1618.66 1290.45 1596.24 1297.15L1555.48 1309.41C1667.06 1338.8 1682.32 1335.14 1767.23 1277.97C1845.21 1225.5 1858.88 1220.85 1858.88 1246.9C1858.88 1254.81 1856.35 1262.46 1853.22 1263.86L1847.56 1266.44L1836.83 1260.42C1827.86 1255.4 1824.11 1255.4 1802.28 1266.44L1799.02 1270.96C1796.98 1273.76 1802.96 1275.48 1833.98 1275.48L1847.56 1270.96C1881.98 1267.79 1885.83 1264.58 1912.95 1229.48C1956.29 1173.4 2019.46 1140.38 2014.39 1176.43C2013.03 1186.06 2009.99 1187.56 1987.9 1189.55C1957.92 1192.26 1947.14 1200.49 1922.14 1239.84C1904.17 1268.07 1904.17 1268.07 1940.39 1273.04C1975.35 1277.79 1976.67 1278.42 1978.11 1290.68C1980.24 1308.86 1966.34 1311.35 1946.33 1296.33C1930.88 1284.75 1929.34 1284.53 1856.26 1284.48C1781.9 1284.44 1781.9 1284.44 1745.68 1310.04C1709.45 1335.59 1709.45 1335.59 1727.56 1339.26C1774.07 1348.66 1801.96 1345.77 1812.29 1330.39C1833.98 1298.28 1881.03 1304.84 1886.87 1340.75C1893.3 1380.33 1858.02 1398.87 1820.85 1375.53C1797.84 1361.06 1759.17 1355.63 1753.19 1365.99C1747.44 1376.03 1814.82 1428.72 1835.29 1430.17C1853.22 1431.44 1854.4 1432.39 1855.49 1446.23L1856.62 1460.93L1852.09 1465.45L1840.32 1462.06C1833.89 1460.2 1827.23 1456.36 1825.6 1453.55C1823.97 1450.75 1810.93 1439.03 1770.58 1406.65L1765.42 1401C1761.43 1396.65 1760.89 1397.69 1766.05 1415.7L1767.18 1421.35C1767.82 1424.47 1773.52 1432.11 1779.91 1438.31C1796.89 1454.86 1798.88 1459.89 1791.73 1468.16C1776.6 1485.62 1766.51 1474 1754.01 1424.74C1738.11 1362.28 1735.89 1360.97 1507.94 1325.24L1458.13 1320.71L1438.88 1325.15C1419.63 1329.58 1419.63 1329.58 1451.33 1349.71C1483.03 1369.83 1483.03 1369.83 1530.58 1369.38C1595.02 1368.79 1691.34 1396.52 1691.34 1415.7C1691.34 1433.52 1674.72 1432.61 1651.62 1413.52C1615.67 1383.81 1497.79 1366.85 1515.05 1393.89C1527.55 1413.52 1582.02 1443.74 1599.27 1440.66C1620.51 1436.86 1629.03 1444.01 1623.05 1460.56C1616.53 1478.79 1586.37 1464.45 1501.14 1402.67C1441.28 1359.2 1428.42 1351.6 1427.02 1358.62C1425.93 1364.04 1431.45 1372.5 1442.46 1382.23C1461.7 1399.32 1462.88 1420.22 1444.59 1420.22C1437.3 1420.22 1432.18 1412.76 1420.68 1385.17C1409.45 1358.3 1402.61 1348.12 1391.38 1341.52C1355.69 1320.58 1262.14 1354.23 1245.29 1411.17L1264.54 1447.85C1275.14 1468.03 1288.36 1489.42 1304.16 1506.16C1400.25 1671.06 1470.31 1813.81 1466.28 1822.27C1460.57 1834.16 1451.6 1819.78 1396.59 1710.41C1359.09 1635.87 1322.82 1571.87 1287.23 1517.46C1257.93 1472.69 1232.43 1429.45 1230.58 1421.35L1227.18 1406.65Z" fill="#EFBF2D"/>
<path d="M1276.99 1659.94L1213.6 1569.48L1171.71 1518.59C1140.51 1480.69 1118 1458.75 1036.99 1397.6L1018.88 1384.03C962.453 1346.95 936.959 1322.7 895.479 1276.52L837.743 1212.16L833.215 1194.07L792.46 1094.56L791.327 1087.28C790.694 1083.3 787.66 1077.2 778.875 1067.43L774.346 1053.86C729.199 999.49 719.961 992.886 665.575 964.437C544.624 901.251 529.771 899.351 461.71 938.746C374.403 989.223 332.833 999.354 332.833 970.181C332.833 955.527 332.154 955.662 382.871 959.009C397.362 960.004 510.299 901.974 505.906 895.868C504.684 894.15 482.54 884.742 456.728 874.927C389.845 849.508 363.988 855.795 339.716 903.377C308.018 965.432 265.859 998.495 256.168 968.869C250.734 952.27 257.436 945.305 278.946 945.305C311.369 945.305 352.939 873.434 331.837 853.94C313.406 836.889 247.247 861.222 225.285 893.109C213.24 910.568 199.383 913.87 189.738 901.613C179.413 888.496 189.647 872.846 210.704 869.635C226.598 867.238 245.164 858.735 254.085 849.824C258.614 845.301 223.972 793.92 210.523 785.146C194.266 774.471 194.221 754.661 210.432 748.781C226.553 742.946 232.621 750.499 240.908 786.412C250.327 827.526 264.5 839.241 299.504 834.853C332.697 830.737 335.958 819.611 321.648 758.505C311.323 714.451 291.172 685.821 256.214 665.648C238.372 655.336 241.949 636.249 262.146 633.942C274.508 632.54 276.591 634.53 289.135 659.949C311.686 705.586 321.286 703.144 330.524 649.366C336.093 616.89 335.912 615.217 325.588 598.798C312.456 577.947 316.757 560.67 335.097 560.67C354.931 560.715 356.018 575.279 342.026 653.708C327.399 736.026 328.033 765.109 344.743 778.271C373.498 800.84 418.826 755.52 401.664 721.326C392.154 702.375 397.498 687.313 413.845 686.952C437.981 686.364 437.936 701.425 413.573 755.339C398.222 789.262 398.222 789.262 406.283 814.138C414.343 839.014 414.343 839.014 494.359 870.223C538.374 887.41 576.594 901.115 579.265 900.753L584.156 900.075L620.383 918.167C678.3 949.692 695.598 956.793 696.232 954.351L697.364 949.828L706.421 936.259C719.146 962.944 737.984 985.876 756.505 1004.37C789.652 1037.53 790.694 1039.25 820.581 1112.66C837.29 1153.72 858.166 1196.96 866.996 1208.77L883.026 1230.25L891.087 1247.03C895.57 1256.31 901.683 1264.45 910.196 1266.44C954.665 1314.52 985.774 1340.25 1011 1356.99C1035.27 1373.09 1070.45 1398.01 1089.11 1412.3L1123.03 1438.31L1136.61 1447.36C1266.31 1596.34 1384.13 1800.51 1368.92 1821.91C1364.3 1828.42 1358.59 1819.6 1329.93 1761.7C1311.5 1724.39 1292.03 1686.22 1286.68 1676.9L1276.99 1659.94Z" fill="#D83889"/>
<path d="M1198.06 1450.02C1159.62 1404.43 1142.05 1379.56 1134.03 1359.57C1127.96 1344.41 1119.54 1324.87 1115.28 1316.19C1099.3 1283.26 1091.56 1250.33 1091.38 1214.42C1091.15 1158.97 1087.84 1145.49 1072.63 1137.94C1048.13 1125.73 1059.45 1095.2 1086.44 1100.58C1100.57 1103.43 1108.76 1118.13 1101.47 1127.58C1098.85 1130.93 1099.12 1142.46 1102.2 1157.89C1107.18 1182.76 1107.18 1182.76 1119.5 1164.94C1134.76 1142.91 1145.17 1101.3 1137.38 1093.52C1121.9 1078.05 1140.96 1050.42 1159.25 1061.86C1169.67 1068.33 1171.53 1089.09 1161.97 1092.75C1158.53 1094.07 1154.27 1104.69 1152.55 1116.36C1148.52 1143.64 1132.13 1176.25 1116.19 1188.78C1103.56 1198.73 1101.88 1247.94 1113.2 1276.61C1117.68 1287.83 1123.03 1286.43 1123.03 1273.99C1123.03 1254.63 1144.63 1211.84 1181.53 1158.11C1222.2 1098.95 1226.05 1084.34 1209.29 1053.09C1198.42 1032.82 1181.76 1026.63 1137.29 1026.22C1101.16 1025.86 1090.42 1018.12 1100.39 999.58C1107.41 986.464 1127.06 987.685 1133.62 1001.66C1138.79 1012.61 1144.85 1014.64 1169.44 1013.65C1184.52 1013.06 1184.84 1008.72 1171.89 982.845C1160.93 960.909 1163.87 948.742 1181.49 943.179C1203.5 936.168 1215.5 970.226 1195.98 984.474C1189.59 989.132 1191.32 994.424 1211.38 1030.79C1233.97 1071.81 1233.97 1071.81 1244.84 1048.47C1255.66 1025.09 1255.66 1025.09 1245.97 1010.93C1234.7 994.515 1233.11 967.105 1242.94 958.964C1259.92 944.898 1223.33 893.923 1204.63 905.593C1192.27 913.282 1177.37 904.191 1177.37 888.903C1177.37 874.746 1192.09 865.881 1203.41 873.208C1229.26 889.898 1242.94 903.829 1251.5 922.237C1262.55 946.074 1273.32 947.928 1293.38 929.384C1299.77 923.459 1318.06 914.277 1334.05 908.985C1350.03 903.648 1362.08 897.678 1360.81 895.642C1356.06 887.953 1374.85 871.399 1385.26 874.158C1405.42 879.405 1401.34 910.613 1380.46 911.292C1364.52 911.88 1310.14 931.329 1304.07 938.656C1299.91 943.676 1300.81 947.611 1308.24 957.064C1327.48 981.489 1314.89 1017.04 1284.33 1024.73C1273.05 1027.53 1264.13 1042.5 1270.11 1048.47C1279.8 1058.15 1325.44 1040.2 1353.97 1015.5C1370.18 1001.48 1398.71 979.815 1417.37 967.332C1436.07 954.848 1455.5 940.736 1460.57 935.942C1473.7 923.459 1489.1 924.68 1494.4 938.611C1501.01 956.024 1486.2 969.322 1467.45 962.809C1452.51 957.607 1438.74 963.804 1402.02 992.208C1384.4 1005.87 1384.4 1005.87 1423.71 1010.93C1445.31 1013.74 1468.63 1015.23 1475.56 1014.24C1499.02 1010.75 1508.66 1049.06 1485.84 1055.03C1475.29 1057.79 1458.13 1047.12 1458.13 1037.85C1458.13 1028.98 1416.42 1018.22 1413.7 1026.36C1410.12 1037.12 1432.4 1065.07 1445.85 1066.61C1472.25 1069.64 1473.25 1103.61 1446.94 1103.61C1436.25 1103.61 1423.8 1089.68 1429.42 1084.02C1430.86 1082.58 1426.43 1074.66 1419.5 1066.48C1412.62 1058.29 1404.1 1044.86 1400.66 1036.58C1392.96 1018.31 1378.74 1019.48 1346.77 1041.01C1334.37 1049.38 1314.35 1056.98 1293.29 1061.27C1259.69 1068.1 1259.69 1068.1 1238.91 1103.84C1214.41 1145.94 1214.27 1146.53 1231.12 1137.85C1238.23 1134.14 1256.84 1129.07 1272.42 1126.59C1295.38 1122.88 1301.85 1119.94 1306.47 1111.03C1314.98 1094.7 1328.93 1091.94 1338.53 1104.69C1349.54 1119.26 1341.88 1132.33 1321.55 1133.64C1228.27 1139.75 1178.32 1173.31 1149.43 1249.29C1126.52 1309.5 1140.78 1352.87 1210.74 1436.05C1282.02 1520.72 1440.01 1789.75 1440.01 1826.38C1440.01 1829.37 1435.94 1831.81 1430.96 1831.81C1423.66 1831.81 1414.2 1815.48 1381.87 1747C1325.99 1628.59 1263.72 1527.96 1198.06 1450.02Z" fill="#89BA4F"/>
<path d="M1027.93 958.874C1048.49 922.056 1068.01 898.311 1084.49 882.345C1121.94 846.116 1123.66 842.723 1143.18 766.104C1159.12 703.325 1159.12 703.325 1173.93 703.325C1196.07 703.325 1197.43 723.95 1176.6 743.489C1161.52 757.601 1161.52 757.601 1183.16 747.198C1215.32 731.774 1233.43 704.908 1229.4 678.674C1225.78 654.748 1233.47 644.164 1251.81 647.737C1281.11 653.481 1235.69 731.729 1184.34 764.068C1156.49 781.618 1154.73 783.743 1145.04 812.962C1131.95 852.402 1131.13 852.357 1218.12 817.44C1310.55 780.351 1313.22 776.733 1313.22 688.761C1313.22 656.331 1312.27 628.017 1311.09 625.801C1306.43 617.162 1317.93 601.557 1328.93 601.557C1348.36 601.557 1352.62 616.89 1338.71 636.882C1326.49 654.522 1322.95 677.453 1331.74 682.429C1342.7 688.625 1383.23 635.842 1385.67 612.277C1387.76 591.969 1388.98 590.114 1401.07 588.757C1433.13 585.049 1414.52 622.318 1351.8 687.494C1329.43 710.742 1312.9 761.038 1323.95 772.119C1327.48 775.602 1383.14 745.298 1413.66 723.271C1449.2 697.626 1453.01 689.801 1442.05 664.879C1434.31 647.24 1434.26 645.657 1441.91 628.062C1447.76 614.584 1449.07 604.226 1446.8 589.391C1445.13 578.219 1445.13 550.674 1446.85 528.195C1449.79 490.111 1449.34 486.674 1440.46 478.985C1427.24 467.496 1427.92 451.349 1441.82 448.816C1457.76 445.921 1462.65 453.791 1462.65 482.467C1462.65 517.159 1468.18 517.656 1500.74 485.95C1524.96 462.34 1528.9 456.053 1533.07 434.207C1537.05 413.22 1539.5 409.104 1548.47 407.793C1579.71 403.315 1550.91 457.546 1493.54 511.098C1425.39 574.781 1460.03 635.932 1541.9 596.492C1573.46 581.249 1573.69 581.023 1592.39 542.713C1622.19 481.744 1684.13 435.473 1679.24 477.809C1677.89 489.387 1675.67 491.016 1657.96 493.141C1626.67 496.941 1573.42 577.948 1597.15 585.682C1618.29 592.557 1658.78 576.184 1667.47 557.187C1676.98 536.336 1685.13 531.27 1698.04 538.19C1711.62 545.472 1709.86 563.971 1694.73 573.017C1671.91 586.677 1672.27 587.672 1705.73 605.99C1750.79 630.64 1779.91 634.394 1797.98 617.795C1816.68 600.698 1832.12 603.186 1830.58 623.087L1829.45 637.741C1745.72 639.958 1745.63 639.958 1698.99 617.524C1652.35 595.09 1652.35 595.09 1601.63 600.517C1537.91 607.347 1516.72 617.795 1516.81 642.264C1516.9 664.246 1507.98 676.549 1484.16 687.268C1464.51 696.133 1428.42 730.191 1433.45 735.212C1434.76 736.523 1460.75 727.251 1491.14 714.632C1558.47 686.635 1588.72 681.072 1592.71 695.998C1597.05 712.371 1588.36 716.894 1563.59 711.059C1542.71 706.129 1540.04 706.717 1489.82 727.839C1461.2 739.87 1417.42 756.56 1392.6 764.973C1367.79 773.341 1333.64 786.819 1316.75 794.915L1286.05 809.615L1245.29 827.707C1108.58 873.344 1063.3 911.699 1043.42 971.312L1036.99 990.535L1027.93 958.874Z" fill="#38AACE"/>
<path d="M1304.16 1506.16C1288.36 1489.42 1275.14 1468.03 1264.54 1447.85L1245.29 1411.17C1297.73 1394.21 1284.87 1391.5 1508.89 1453.46C1671.32 1498.38 1785.93 1505.25 1839 1473.32L1852.09 1465.45L1856.62 1460.93C1912.05 1432.02 1863.64 1531.17 1807.4 1584.13C1693.51 1691.42 1555.53 1673.78 1329.61 1523.12L1304.16 1506.16ZM1292.84 1472.14C1360.77 1534.6 1492.59 1608.69 1570.2 1628C1590.76 1633.12 1619.88 1637.32 1634.96 1637.32C1650.04 1637.32 1676.57 1634.11 1693.92 1630.18C1725.75 1622.94 1788.69 1588.84 1788.69 1578.84C1788.69 1576.17 1788.2 1574.23 1787.56 1574.54C1667.88 1630.18 1595.47 1617.33 1386.12 1503.35C1277.08 1444.01 1253.76 1436.18 1292.84 1472.14ZM1310.23 1439.8C1299.23 1450.75 1543.98 1568.93 1606.43 1582.77C1635.82 1589.33 1658.55 1591.5 1682.55 1590.19C1705.6 1588.88 1726.34 1584.36 1745.99 1576.31C1774.79 1564.5 1818.94 1534.88 1814.46 1530.35C1813.15 1529.09 1807.35 1531.17 1801.51 1534.97C1732 1580.47 1650.53 1569.16 1431.91 1483.68C1366.47 1458.08 1311.68 1438.31 1310.23 1439.8ZM1451.33 1474.18C1521.07 1501.18 1598.01 1528.54 1622.28 1535.06C1646.55 1541.57 1677.57 1546.86 1691.15 1546.86C1704.78 1546.86 1730.64 1542.84 1748.71 1537.91C1780.45 1529.27 1845.62 1493.63 1819.89 1499.01C1719.09 1520.09 1628.8 1507.87 1418.68 1444.73C1355.92 1425.87 1300.9 1411.4 1296.42 1412.53C1290.85 1413.98 1294.02 1416.28 1306.43 1419.9C1316.39 1422.8 1381.6 1447.22 1451.33 1474.18Z" fill="#E58E33"/>
<path d="M1245.29 827.707L1286.05 809.615C1322.91 813.55 1348.49 818.932 1366.7 824.089C1418.46 838.788 1430.14 835.441 1488.01 789.216C1540.95 746.972 1555.48 742.132 1555.48 766.647C1555.48 779.356 1554.17 780.396 1535.02 782.794C1518.4 784.919 1507.21 791.252 1476.15 816.219L1437.75 847.065C1574.23 891.3 1610.59 870.947 1620.78 788.447C1627.71 732.001 1646.37 685.233 1661.9 685.233C1680.47 685.233 1680.15 706.853 1661.45 719.065C1643.7 730.598 1635.23 752.716 1634.96 788.131C1634.69 820.108 1639.12 821.058 1668.42 795.368C1693.69 773.114 1709.45 774.245 1709.45 798.307C1709.45 811.469 1708.68 811.967 1684.54 814.138C1651.8 817.168 1574.59 880.4 1594.61 887.817C1616.98 896.049 1671.46 889.627 1679.52 877.776C1683.5 871.851 1693.51 858.011 1701.75 847.065C1734.44 803.283 1748.98 729.694 1731.59 695.5C1720.63 673.835 1730.78 659.226 1751.11 667.457C1765.6 673.337 1763.38 710.516 1744.36 779.492C1730.37 830.33 1733.54 841.005 1761.07 835.351C1788.24 829.787 1798.7 807.534 1802.46 747.56C1805.09 705.586 1808.3 688.308 1817.63 666.01L1829.45 637.741C1856.85 651.31 1855.12 665.241 1836.33 679.986C1818.31 694.098 1807.12 736.116 1812.88 767.732C1816 784.739 1816 784.739 1842.63 763.209C1877.59 734.94 1877.86 734.85 1888.36 745.298C1904.3 761.219 1890.26 779.899 1866.04 775.059C1852.72 772.391 1848.88 774.969 1811.15 812.193C1756.72 865.836 1757.63 876.148 1816.09 870.313C1852.45 866.695 1935.32 879.586 1943.65 890.169C1947.32 894.828 1947.64 900.301 1944.7 907.583C1938.27 923.368 1918.84 921.83 1907.25 904.598C1902.22 897.135 1894.93 891.029 1891.08 891.029C1886.01 891.029 1890.31 900.663 1906.11 924.906C1927.35 957.426 1929.21 959.009 1952.44 964.482C1973.09 969.367 1976.62 971.719 1976.62 980.72C1976.62 1015.77 1936.59 991.575 1894.61 931.193C1857.16 877.324 1803.05 865.293 1758.13 900.979C1743.5 912.603 1738.75 914.006 1723.03 911.473C1686.35 905.548 1644.47 904.01 1641.25 908.442C1629.75 924.408 1721.18 950.099 1747.08 938.203C1773.07 926.218 1794.35 945.169 1775.74 963.758C1766.6 972.895 1762.97 972.804 1742.69 962.718C1738.52 960.683 1720.18 955.888 1701.93 952.134C1680.92 947.792 1657.15 938.611 1637.36 927.213C1614.13 913.87 1594.2 906.769 1560.38 899.894C1535.29 894.738 1474.34 876.917 1424.98 860.272C1340.98 831.913 1332.33 829.878 1290.26 828.838L1245.29 827.707Z" fill="#1C9963"/>
<path d="M584.156 900.075C559.522 856.247 554.676 839.421 549.876 804.73C541.861 746.926 538.057 741.273 469.861 685.233C439.611 660.356 411.852 637.47 408.185 634.394C396.637 624.579 404.426 603.819 419.686 603.819C431.053 603.819 433.407 606.533 441.06 628.062C447.853 647.24 455.008 656.693 475.023 672.975C500.382 693.6 500.382 693.6 504.004 663.568C507.265 636.701 506.631 632.042 497.846 619.423C484.804 600.698 487.747 583.466 503.959 583.466C524.019 583.466 526.238 590.793 520.397 638.013C514.374 686.771 519.174 707.938 540.865 728.201C553.001 739.509 553.001 739.509 583.25 662.934C613.545 586.406 613.545 586.405 599.19 563.429C573.378 522.089 535.431 514.4 461.845 535.612C384.637 557.82 350.946 557.504 350.946 534.572C350.946 513.314 364.803 510.51 388.26 527.064C406.147 539.683 406.147 539.683 452.155 525.164C477.423 517.204 498.117 508.791 498.117 506.439C498.117 495.358 470.721 483.96 450.977 486.855C427.566 490.292 416.154 479.075 425.483 461.707C433.679 446.419 447.038 450.535 496.397 483.779C559.567 526.34 580.85 530.14 607.115 503.499C616.896 493.549 624.911 481.11 624.911 475.864C624.911 463.787 576.865 429.82 548.744 422.04C530.178 416.884 529.227 415.798 530.631 401.641C533.031 377.082 552.186 378.258 569.62 404.129C584.79 426.563 621.107 450.535 633.424 446.283C650.722 440.268 663.719 399.968 656.926 373.373C649.907 345.873 652.307 339.269 669.334 339.089C694.104 338.862 692.972 357 664.172 422.131C633.741 490.925 633.877 489.84 655.432 505.354C672.006 517.339 672.685 517.43 693.832 510.781C731.372 498.976 738.482 484.095 743.372 406.526C747.765 336.737 751.387 326.831 770.542 331.761C787.388 336.058 787.433 355.462 770.678 370.795C757.365 382.916 756.867 384.771 755.78 426.834C754.421 479.799 753.153 478.442 788.52 461.345C823.931 444.248 839.147 445.107 836.973 464.059C835.524 476.904 834.935 477.175 808.309 477.175C783.765 477.175 777.833 479.256 746.814 498.614C727.931 510.419 705.832 522.405 697.772 525.209C688.715 528.33 678.391 537.512 670.964 549C664.307 559.222 651.719 573.741 642.979 581.204C631.251 591.2 623.824 604 614.677 629.826L602.269 664.879L597.016 671.709C589.771 681.162 594.163 684.012 611.326 669.402C683.825 640.681 688.262 637.47 697.138 620.102C709.953 594.999 731.327 593.914 731.327 618.428C731.327 632.857 730.648 633.309 665.666 662.03C585.605 697.445 578.088 705.451 569.348 764.883C562.148 813.821 571.839 852.583 601.137 892.159L620.383 918.167L584.156 900.075Z" fill="#A32872"/>
<path d="M1236.24 1365.94C1239.41 1344.96 1248.64 1323.52 1258.83 1304.79C1277.35 1270.73 1277.35 1270.73 1274.37 1221.25C1270.83 1163.04 1272.33 1156.84 1289.4 1158.74C1305.97 1160.6 1308.06 1175.62 1294.38 1194.11C1284.87 1206.96 1284.37 1210.13 1288.77 1231.52C1293.52 1254.9 1293.52 1254.9 1309.05 1242.6C1317.57 1235.82 1347.95 1216.14 1376.62 1198.91C1521.79 1111.57 1501.28 1135.54 1529.67 1019.93C1541.18 973.121 1542.58 970.181 1553.22 970.181C1570.93 970.181 1571.47 987.007 1554.31 1005.55C1539.09 1022.01 1519.26 1104.11 1529.72 1107.27C1534.38 1108.72 1590.13 1072.45 1601.49 1060.6C1607.29 1054.58 1609.78 1032.24 1605.57 1023.87C1602.22 1017.22 1615.08 992.208 1624 988.092C1636.77 982.212 1737.61 978.639 1798.16 981.896C1830.94 983.66 1833.07 983.162 1844.17 971.312C1857.84 956.657 1872.29 955.255 1879.62 967.92C1888.95 983.976 1875.5 997.545 1851.46 996.279C1814.64 994.424 1814.46 1001.89 1850.78 1026.81C1890.22 1053.86 1914.85 1059.92 1937.86 1048.2C1966.48 1033.68 1986.95 1043.32 1975.81 1066.07C1970.91 1076.06 1968.79 1076.56 1941.89 1074.07C1894.88 1069.73 1894.16 1069.91 1903.13 1083.21C1917.48 1104.38 1953.53 1118.76 1983.73 1115.28C2012.08 1112.02 2019.64 1115.32 2019.64 1130.97C2019.64 1164.58 1930.43 1129.62 1877.63 1075.34C1794.99 990.444 1695.73 961.768 1688.03 1020.61C1684.68 1046.3 1672.41 1057.75 1642.93 1062.72C1624.27 1065.84 1615.85 1069.87 1609.37 1078.6C1592.48 1101.53 1653.3 1103.16 1762.48 1082.76C1778.1 1079.82 1779.5 1080.5 1782.54 1092.17C1787.38 1110.62 1777.78 1114.33 1743.77 1107.23C1722.17 1102.7 1713.34 1102.57 1705.74 1106.59C1686.67 1116.73 1773.52 1150.87 1808.08 1146.8C1839.96 1143.05 1854.22 1154.9 1836.74 1170.55C1828.63 1177.83 1825.19 1177.11 1771.08 1156.53C1634.91 1104.79 1621.82 1101.17 1591.26 1106.73C1564.99 1111.48 1426.29 1181.86 1431.95 1187.56C1433.13 1188.69 1461.39 1182.54 1494.81 1173.85C1576.63 1152.5 1609.37 1150.87 1610.96 1168.06L1612.09 1180.5L1607.56 1185.02H1593.98L1581.52 1177.74C1567.85 1169.69 1552.41 1171.82 1467.18 1193.57C1446.03 1199 1419.09 1204.29 1407.32 1205.42C1363.03 1209.58 1269.16 1293.85 1258.88 1347.85L1236.24 1365.94Z" fill="#B2C947"/>
<path d="M769.818 1058.38L778.874 1067.43C787.659 1077.19 790.693 1083.3 791.327 1087.28L792.459 1094.56C715.659 1045.04 704.112 1048.61 629.122 1118.08C580.533 1163.09 567.944 1169.42 556.442 1154.76C544.986 1140.2 557.167 1126.22 581.212 1126.22C600.865 1126.22 603.809 1124.37 643.93 1086.92C686.043 1047.66 686.043 1047.66 658.647 1045.81C623.235 1043.41 562.601 1059.06 551.869 1073.4C524.472 1109.94 510.978 1137.03 513.378 1150.56C528.548 1236.31 526.646 1263.04 502.6 1303.75C491.28 1322.93 487.838 1325.69 476.834 1324.42C454.374 1321.84 456.502 1300.18 480.276 1289.46C504.774 1278.47 514.193 1254.86 509.665 1215.82C506.314 1186.79 503.733 1185.16 483.853 1199.13C472.713 1206.96 469 1214.33 463.385 1239.89C455.596 1275.44 443.053 1285.84 430.192 1267.43C423.853 1258.34 424.441 1256.58 438.706 1241.38C464.925 1213.56 435.536 1204.7 404.335 1231.02C383.686 1248.44 366.796 1245.59 366.796 1224.64C366.796 1210.04 379.475 1202.3 397.634 1205.78C464.155 1218.58 531.989 1142.1 476.246 1117.22C461.166 1110.48 461.166 1110.48 418.6 1141.24C370.826 1175.71 355.475 1179.19 355.475 1155.62C355.475 1142.64 356.471 1141.96 378.298 1139.79C432.411 1134.41 481 1073.31 445.317 1055.39C416.019 1040.65 385.045 1051.32 362.222 1084.02C329.165 1131.38 294.252 1154.18 280.168 1137.62C270.161 1125.77 281.98 1112.66 302.629 1112.66C322.735 1112.66 333.829 1104.29 350.992 1076.2C365.392 1052.73 368.109 1054.53 314.584 1051.59C265.995 1048.93 261.285 1047.03 263.459 1030.7C265.451 1015.82 282.297 1014.28 299.912 1027.4C312.863 1037.03 318.976 1037.89 382.237 1039.02C493.227 1041.06 518.042 1042.64 526.782 1048.43C535.703 1054.31 624.73 1033.19 624.866 1025.14C625.047 1013.6 558.073 977.418 534.072 976.061C509.438 974.704 509.438 974.704 509.438 958.874C509.438 933.409 520.397 936.394 585.514 979.634C640.624 1016.27 649.364 1020.52 697.364 1033.68C726.029 1041.51 754.014 1050.28 759.629 1053.18L769.818 1058.38Z" fill="#C62368"/>
<path d="M1009.82 1388.56L1027.93 1402.13L1073.22 1438.31L1068.69 1456.4C947.736 1364.81 878.453 1355.63 801.29 1399.05C758.95 1422.84 740.701 1425.1 743.372 1406.11C744.686 1397.02 748.082 1394.98 765.289 1393.08C776.52 1391.86 802.875 1383.67 823.886 1374.99C862.06 1359.16 862.06 1359.16 839.962 1352.92C787.478 1338.04 706.104 1365.9 676.036 1409.05C661.455 1429.9 641.666 1430.21 639.266 1409.59C637.907 1397.87 639.719 1396.07 659.643 1389.01C698.451 1375.31 729.425 1351.15 715.161 1345.68C705.334 1341.97 700.263 1343.6 682.24 1356.31C656.473 1374.49 636.775 1374.13 609.062 1354.95C586.737 1339.44 554.042 1345.5 534.752 1368.61C521.348 1384.76 502.646 1379.65 502.646 1359.88C502.646 1344.77 504.819 1343.78 553.408 1336.27C617.801 1326.32 619.613 1322.66 585.333 1270.06C570.299 1246.9 553.59 1224.01 548.201 1219.17C535.114 1207.37 534.797 1184.8 547.703 1181.81C562.465 1178.42 569.484 1186.52 574.511 1212.75C583.205 1258.07 612.911 1293.76 641.892 1293.67C663.04 1293.57 667.296 1295.25 680.383 1308.86C695.145 1324.2 770.95 1337.49 777.38 1325.87C780.686 1319.9 748.806 1271.1 733.455 1258.57C714.346 1242.96 715.704 1223.47 735.855 1223.47C748.172 1223.47 749.893 1225.37 754.557 1243.87C760.716 1268.25 788.746 1313.88 801.878 1320.89C807.041 1323.65 838.105 1332.43 870.936 1340.39C903.721 1348.3 948.416 1362.41 970.197 1371.69L1009.82 1388.56Z" fill="#C62368"/>
<path d="M883.026 1230.25C878.181 1184.93 879.313 1153.54 882.619 1127.94C890 1070.41 889.004 1068.47 826.513 1017.31C782.497 981.262 777.561 975.79 779.237 964.573C782.678 941.777 800.837 947.657 812.294 975.292C822.12 999.083 878.362 1049.74 887.962 1043.5C898.921 1036.44 892.989 984.067 879.902 972.488C872.883 966.291 860.656 952.315 852.687 941.415C828.822 908.714 791.146 871.58 775.75 865.564C758.95 859.051 752.429 845.256 760.942 834.401C771.675 820.787 787.207 828.566 799.343 853.578C820.807 897.949 837.834 906.814 871.479 891.029C900.37 877.46 900.37 877.46 901.91 852.267C903.223 830.466 904.808 826.712 913.774 824.405C931.706 819.746 936.506 831.28 926.363 854.845C918.619 872.937 918.212 878.319 922.876 903.196C927.676 929.022 927.314 932.912 917.804 952.948C908.385 972.759 907.706 979.137 909.97 1024.46C912.461 1074.21 912.461 1074.21 934.242 1054.04C951.359 1038.16 957.155 1028.98 961.412 1011.07C966.393 989.946 967.797 988.273 980.386 988.273C1008.28 988.273 1001.58 1005.78 955.887 1052C906.846 1101.66 896.611 1122.79 896.611 1174.35C896.611 1192.67 898.332 1207.64 900.37 1207.64C910.785 1207.64 947.51 1161.82 952.944 1142.01C959.238 1119.3 972.189 1111.12 985.05 1121.79C997.956 1132.51 992.159 1144.63 962.227 1169.33C921.019 1203.43 907.661 1223.02 909.064 1247.21L910.197 1266.44C901.683 1264.45 895.57 1256.31 891.087 1247.03L883.026 1230.25Z" fill="#A32872"/>
<path d="M1095.86 1949.41L1077.74 1944.89L1063.03 1942.08C1054.92 1940.54 1038.12 1934.8 1025.67 1929.28C1003.03 1919.28 1003.03 1919.28 1018.88 1910.33C1038.85 1898.98 1143.41 1887.22 1209.07 1895.13L1176.87 1900.79C1108.76 1912.73 1099.57 1923.54 1150.7 1931.54C1187.24 1937.24 1304.75 1942.9 1349.45 1941.09C1388.34 1939.5 1427.11 1939.37 1446.8 1940.72C1476.92 1942.8 1636.27 1935.48 1660.68 1930.91C1712.53 1921.18 1709.36 1911.01 1612.09 1895.13L1665.3 1894C1843.44 1890.2 1859.92 1929.69 1634.73 1949.41H1625.67L1402.65 1950.27C1227.81 1950.95 1173.66 1949.82 1151.96 1944.93C1130.23 1940.09 1121.26 1939.91 1095.86 1949.41Z" fill="#CEC6CE"/>
<path d="M1634.73 1949.41C1859.93 1929.69 1843.44 1890.2 1665.3 1894L1612.09 1895.13H1593.98L1567.94 1889.48C1532.34 1881.74 1272.74 1881.93 1249.82 1895.13H1209.07C1143.41 1887.22 1038.85 1898.98 1018.88 1910.33C1003.03 1919.28 1003.03 1919.28 1025.67 1929.28C1038.12 1934.8 1054.92 1940.54 1063.03 1942.08L1077.74 1944.89C968.748 1945.7 898.558 1930.95 907.706 1917.39C940.627 1868.85 1839.68 1861.53 1897.37 1909.33C1908.7 1918.7 1908.7 1918.7 1888.32 1927.88C1864.32 1938.69 1703.56 1955.56 1660.77 1951.71L1634.73 1949.41Z" fill="#EDE5EA"/>
<path d="M1292.84 1472.14C1253.76 1436.18 1277.08 1444.01 1386.12 1503.35C1595.47 1617.33 1667.88 1630.18 1787.56 1574.54C1788.2 1574.23 1788.69 1576.17 1788.69 1578.84C1788.69 1588.84 1725.75 1622.94 1693.92 1630.18C1676.57 1634.11 1650.04 1637.32 1634.96 1637.32C1619.88 1637.32 1590.76 1633.12 1570.2 1628C1492.59 1608.69 1360.77 1534.6 1292.84 1472.14Z" fill="#FCFCFC"/>
<path d="M896.611 796.046L905.668 787C933.834 782.975 891.902 741.861 868.943 742.087C851.011 742.268 845.758 740.051 831.539 726.211C813.018 708.21 805.003 706.988 766.286 716.396C709.229 730.236 683.779 727.885 683.779 708.798C683.779 691.384 704.7 685.685 721.591 698.485C736.716 709.973 736.716 709.974 779.327 702.149C828.641 693.058 835.207 684.78 812.928 660.04C804.324 650.451 763.297 569.942 760.897 557.911C760.308 555.016 771.448 543.03 776.973 540.588C785.576 536.788 803.69 554.111 799.252 561.936C780.414 595.451 818.18 671.211 849.652 663.025C869.079 657.959 890.724 601.919 884.566 572.61C878.543 543.889 883.207 532.582 900.325 534.572C918.8 536.698 918.438 556.282 899.147 601.919C879.947 647.421 879.494 654.793 894.755 676.865C904.174 690.434 906.03 697.445 904.174 712.145C902.045 728.97 904.445 734.262 933.2 776.823L964.536 823.184L978.121 877.46C940.581 816.671 934.649 810.7 917.125 803.961L896.611 796.046Z" fill="#635493"/>
<path d="M1310.23 1439.8C1311.68 1438.31 1366.47 1458.08 1431.91 1483.68C1650.53 1569.16 1732 1580.47 1801.51 1534.97C1807.35 1531.17 1813.15 1529.09 1814.46 1530.35C1818.94 1534.88 1774.79 1564.5 1745.99 1576.31C1726.34 1584.36 1705.6 1588.88 1682.55 1590.19C1658.55 1591.5 1635.82 1589.33 1606.43 1582.77C1543.98 1568.93 1299.23 1450.75 1310.23 1439.8Z" fill="#FCFCFC"/>
<path d="M1451.33 1474.18C1381.6 1447.22 1316.39 1422.8 1306.43 1419.9C1294.02 1416.28 1290.85 1413.98 1296.42 1412.53C1300.9 1411.4 1355.92 1425.87 1418.68 1444.73C1628.8 1507.87 1719.09 1520.09 1819.89 1499.01C1845.62 1493.63 1780.45 1529.27 1748.71 1537.91C1730.64 1542.84 1704.78 1546.86 1691.15 1546.86C1677.57 1546.86 1646.55 1541.57 1622.28 1535.06C1598.01 1528.54 1521.07 1501.18 1451.33 1474.18Z" fill="#FCFCFC"/>
<path d="M1385.67 1904.18H1435.48C1544.35 1912.41 1546.16 1912.91 1538.68 1920.82C1530.04 1930.05 1293.2 1933.67 1275.18 1924.85C1257.79 1916.3 1278.94 1909.74 1332.96 1906.94L1385.67 1904.18Z" fill="#6B636D"/>
<path d="M692.836 927.213C692.836 916.674 680.112 896.773 664.534 876.193C612.186 806.946 596.79 743.896 636.911 762.983C647.643 768.094 648.051 769.677 645.107 794.644C641.847 822.279 665.53 872.077 685.908 880.49C701.848 887.094 707.599 826.44 693.968 795.684C683.734 772.572 693.515 758.596 714.165 766.963C724.987 771.35 725.712 773.295 722.904 789.578C721.229 799.348 716.836 827.209 713.123 851.453L706.421 895.552L697.364 918.167L692.836 927.213Z" fill="#D83889"/>
<path d="M833.215 1194.07L837.743 1212.16C807.901 1201.03 767.69 1192.31 729.063 1185.61C658.874 1173.44 658.874 1173.44 657.379 1160.73C655.206 1142.01 670.285 1139.52 689.349 1155.58C699.764 1164.35 710.859 1168.7 726.708 1170.23C749.259 1172.4 749.259 1172.4 738.346 1148.21C732.323 1134.86 721.546 1119.44 714.346 1113.92C695.825 1099.67 697.863 1078.73 717.742 1078.73C730.829 1078.73 731.644 1080 740.655 1113.29C752.565 1157.3 764.52 1170.78 803.192 1183.89L833.215 1194.07Z" fill="#C62368"/>
<path d="M1231.71 1379.51L1227.18 1406.65C1206.44 1371.51 1204 1360.06 1201.64 1320.94C1199.87 1291.9 1196.21 1269.42 1192.13 1262.68C1182.89 1247.49 1186.88 1230.25 1199.65 1230.25C1214.46 1230.25 1218.35 1238.71 1217.22 1268.74C1216.27 1295.84 1216.27 1295.84 1224.51 1278.56C1231.94 1263 1232.16 1258.88 1226.68 1236.77C1220.84 1213.2 1221.02 1211.98 1230.35 1206.64C1260.24 1189.59 1257.61 1252.42 1226.27 1304.93C1213.01 1327.23 1214.18 1369.52 1228.31 1377.57L1231.71 1379.51Z" fill="#B2C947"/>
<path d="M1068.69 1456.4L1073.22 1438.31L1209.07 1574L1236.24 1619.23L1229.5 1634C1205.23 1604.19 1167.22 1559.8 1132.27 1523.12L1068.69 1456.4Z" fill="#A32872"/>
<path d="M1095.86 1949.41C1121.26 1939.91 1130.23 1940.09 1151.96 1944.93C1173.66 1949.82 1227.81 1950.95 1402.65 1950.27L1625.67 1949.41C1616.57 1961.44 1290.58 1962.03 1183.03 1955.06L1095.86 1949.41Z" fill="#EDE5EA"/>
<path d="M1299.63 1773.01C1294.38 1757.23 1280.12 1728.73 1264.54 1699.51L1236.24 1646.37L1254.35 1641.84L1272.46 1668.98L1313.22 1759.44L1299.63 1773.01Z" fill="#A32872"/>
<path d="M855.856 787L860.385 796.046C782.135 807.037 771.04 802.197 775.342 780.261C778.059 766.466 793.863 764.928 810.709 776.823C816.867 781.165 829.547 785.236 838.875 785.869L855.856 787Z" fill="#635493"/>
<path d="M1313.22 1800.15L1326.8 1786.58C1342.15 1831.95 1342.15 1831.81 1331.51 1831.81C1325.31 1831.81 1321.23 1827.06 1317.93 1815.98L1313.22 1800.15Z" fill="#A32872"/>
<path d="M1299.63 1773.01L1313.22 1759.44L1326.8 1786.58L1313.22 1800.15L1299.63 1773.01Z" fill="#A32872"/>
<path d="M1236.12 1646.37L1230.34 1637.5L1227 1628.28L1236.12 1619.23L1254.35 1641.84L1236.12 1646.37Z" fill="#A32872"/>
<path d="M860.385 796.046L855.856 787H905.668L896.611 796.046H860.385Z" fill="#635493"/>
<path d="M697.364 949.828L692.836 927.213L697.364 918.167L706.421 931.736V936.259L697.364 949.828Z" fill="#C62368"/>
<path d="M697.364 918.167L706.421 895.552V931.736L697.364 918.167Z" fill="#A32872"/>
</g>
<defs>
<clipPath id="clip0_2_9463">
<rect width="2237" height="2361" fill="white"/>
</clipPath>
</defs>
</svg>
