<svg width="297" height="405" viewBox="0 0 297 405" fill="none" xmlns="http://www.w3.org/2000/svg">
  <style>
    .shinyGreen { animation: shine 3s ease-in-out infinite; }
    @keyframes shine {
      0%, 100% { filter: brightness(1); }
      50% { filter: brightness(1.9); }
    }
  </style>
<path d="M231.67 0.0170637C233.591 0.849095 233.591 0.849095 235.341 4.16159C237.179 9.61601 236.847 15.1656 236.591 20.8491C237.437 20.1852 238.283 19.5214 239.154 18.8374C255.798 5.84909 255.798 5.84909 259.591 5.84909C263.022 16.141 258.992 26.0519 255.591 35.7866C254.873 37.881 254.159 39.9769 253.452 42.0751C252.814 43.9612 252.162 45.8427 251.509 47.7239C250.404 50.9459 250.404 50.9459 250.591 54.8491C252.477 56.4026 252.477 56.4026 254.904 57.6616C259.419 60.4921 261.08 62.6044 262.591 67.8491C262.655 68.5408 262.718 69.2324 262.783 69.945C263.209 73.6718 263.754 76.0625 266.544 78.6833C269.143 80.4255 271.786 81.9682 274.529 83.4741C276.438 84.5845 278.347 85.6951 280.255 86.8061C281.175 87.3277 282.094 87.8493 283.042 88.3867C286.231 90.2161 289.317 92.1643 292.404 94.1616C293.651 94.9602 293.651 94.9602 294.923 95.7749C295.474 96.1294 296.024 96.4839 296.591 96.8491C292.905 106.493 286.799 112.245 277.591 116.849C275.194 116.945 272.821 116.986 270.423 116.99C268.958 117.008 267.492 117.028 266.027 117.048C263.721 117.077 261.415 117.099 259.109 117.1C249.244 116.766 249.244 116.766 240.228 120.021C237.476 122.973 236.028 125.087 234.591 128.849C234.849 131.516 235.239 133.868 235.802 136.462C237.495 147.321 238.552 158.688 233.591 168.849C230.346 173.041 226.629 176.552 222.662 180.037C221.862 180.741 221.862 180.741 221.045 181.459C217.674 184.403 214.26 187.295 210.841 190.183C210.264 190.671 209.686 191.159 209.091 191.662C208.226 192.393 208.226 192.393 207.342 193.139C193.739 204.721 183.073 215.021 181.292 233.52C180.776 240.5 180.754 247.421 181.029 254.412C181.059 255.173 181.089 255.935 181.12 256.72C181.529 266.146 182.358 275.493 183.591 284.849C184.272 284.881 184.953 284.914 185.654 284.947C186.55 285.009 187.446 285.071 188.369 285.134C189.699 285.214 189.699 285.214 191.056 285.295C194.79 286.111 196.334 288.173 198.533 291.158C200.937 294.999 200.591 295.464 200.591 300.849C190.691 300.849 180.791 300.849 170.591 300.849C170.179 297.714 169.766 294.579 169.341 291.349C168.256 283.233 166.993 275.166 165.591 267.099C163.552 255.296 162.167 243.446 160.917 231.536C160.699 229.734 160.419 227.937 160.081 226.153C158.963 218.608 159.084 210.907 158.967 203.292C158.925 201.17 158.864 199.048 158.782 196.927C158.08 178.312 158.08 178.312 161.831 173.167C164.297 170.674 166.597 168.664 169.591 166.849C169.921 166.849 170.251 166.849 170.591 166.849C170.488 168.128 170.385 169.407 170.279 170.724C170.67 174.59 171.506 175.766 174.341 178.533C177.638 181.148 181.088 183.521 184.591 185.849C185.149 186.239 185.706 186.629 186.281 187.03C189.221 189.214 189.221 189.214 192.716 189.849C195.261 188.492 196.755 187.089 198.591 184.849C199.207 181.829 199.207 181.829 199.137 178.428C199.157 177.127 199.177 175.826 199.197 174.486C199.199 173.07 199.2 171.655 199.201 170.24C199.216 168.788 199.233 167.336 199.251 165.885C199.295 162.071 199.315 158.257 199.33 154.443C199.353 149.863 199.405 145.283 199.453 140.704C199.521 133.752 199.553 126.801 199.591 119.849C180.781 119.849 161.971 119.849 142.591 119.849C150.434 107.526 150.434 107.526 154.279 102.224C155.14 101.03 156.001 99.8364 156.861 98.6421C157.305 98.0264 157.749 97.4107 158.207 96.7763C160.648 93.378 163.056 89.9568 165.466 86.5366C165.965 85.8293 166.464 85.122 166.978 84.3933C167.998 82.9467 169.017 81.5 170.037 80.0532C172.14 77.071 174.245 74.0906 176.352 71.1108C177.378 69.6565 178.403 68.2008 179.425 66.7436C181.499 63.7901 183.582 60.8609 185.759 57.9819C189.642 52.7999 191.703 48.0536 193.576 41.8647C196.517 33.1303 201.762 25.8739 207.591 18.8491C208.245 17.977 208.245 17.977 208.912 17.0874C212.951 11.8995 224.988 -0.523014 231.67 0.0170637Z" fill="#C75C25"/>
<path d="M72.6766 119.622C73.3698 119.622 74.0631 119.621 74.7773 119.621C77.0553 119.622 79.333 119.638 81.6109 119.654C83.1956 119.657 84.7803 119.66 86.365 119.662C90.5259 119.67 94.6867 119.69 98.8476 119.712C103.097 119.732 107.347 119.741 111.597 119.751C119.929 119.773 128.26 119.807 136.591 119.849C130.365 127.245 130.365 127.245 127.041 130.279C126.428 130.842 125.816 131.406 125.185 131.987C124.556 132.56 123.927 133.133 123.279 133.724C121.958 134.944 120.637 136.166 119.318 137.388C118.683 137.976 118.048 138.564 117.393 139.17C114.948 141.449 112.54 143.758 110.154 146.099C109.454 146.785 108.754 147.471 108.033 148.177C106.374 149.734 106.374 149.734 106.591 151.849C114.511 156.139 122.431 160.429 130.591 164.849C128.409 169.213 126.583 171.109 122.591 173.849C118.996 173.514 116.213 172.322 113.052 170.634C112.225 170.195 111.397 169.756 110.545 169.304C109.268 168.615 109.268 168.615 107.966 167.912C107.108 167.456 106.249 167 105.365 166.531C102.007 164.739 98.7608 162.962 95.5914 160.849C95.6176 162.104 95.6438 163.36 95.6707 164.653C95.7617 169.344 95.8188 174.035 95.866 178.726C95.8911 180.75 95.9251 182.775 95.9686 184.798C96.0297 187.721 96.0577 190.641 96.0797 193.564C96.1055 194.458 96.1313 195.352 96.1579 196.273C96.1629 207.735 89.2166 215.015 81.5914 222.849C80.9504 223.51 80.3094 224.172 79.649 224.853C77.493 227.069 75.326 229.274 73.1539 231.474C72.0879 232.56 72.0879 232.56 71.0003 233.668C70.3304 234.339 69.6605 235.009 68.9703 235.701C68.3677 236.307 67.7652 236.914 67.1444 237.539C65.5914 238.849 65.5914 238.849 63.5914 238.849C63.0964 240.334 63.0964 240.334 62.5914 241.849C61.9314 241.849 61.2714 241.849 60.5914 241.849C60.5914 242.509 60.5914 243.169 60.5914 243.849C59.2359 245.181 59.2359 245.181 57.4039 246.662C54.2894 249.241 51.4142 251.948 48.5914 254.849C48.0605 255.264 47.5297 255.679 46.9827 256.106C44.9283 258.68 45.1561 260.791 45.0797 264.048C45.0442 265.257 45.0088 266.465 44.9722 267.71C44.9497 268.973 44.9271 270.236 44.9039 271.537C44.8697 272.811 44.8356 274.085 44.8004 275.398C44.7178 278.548 44.6487 281.698 44.5914 284.849C46.012 285.055 46.012 285.055 47.4613 285.265C50.7556 285.88 51.9887 286.557 54.4039 288.787C54.9878 289.311 55.5718 289.836 56.1734 290.376C59.5484 293.882 58.5914 295.179 58.5914 300.849C48.6914 300.849 38.7914 300.849 28.5914 300.849C28.402 293.446 28.2219 286.052 28.1256 278.649C28.0783 275.201 28.0152 271.755 27.9124 268.308C27.795 264.344 27.7521 260.381 27.7125 256.415C27.666 255.193 27.6196 253.971 27.5717 252.712C27.5667 244.195 27.5667 244.195 30.5143 240.323C32.0983 238.821 33.7124 237.349 35.3551 235.911C40.9909 230.714 41.7862 224.922 42.1373 217.493C42.1947 214.621 42.1991 211.749 42.2008 208.876C42.2158 207.342 42.2325 205.808 42.2509 204.274C42.2943 200.264 42.3145 196.255 42.3296 192.245C42.3493 188.142 42.3912 184.04 42.4312 179.937C42.5063 171.908 42.5567 163.879 42.5914 155.849C41.9314 155.849 41.2714 155.849 40.5914 155.849C40.3233 156.447 40.0551 157.045 39.7789 157.662C38.5914 159.849 38.5914 159.849 37.0372 161.111C34.9215 163.654 35.24 165.573 35.2701 168.846C35.2729 170.081 35.2757 171.316 35.2786 172.589C35.2866 173.249 35.2947 173.909 35.303 174.589C35.326 176.663 35.3271 178.735 35.3217 180.809C35.309 186.704 35.3258 192.599 35.3819 198.494C35.4147 202.103 35.4132 205.71 35.3909 209.319C35.3892 210.689 35.4003 212.058 35.425 213.428C35.6369 225.463 35.6369 225.463 31.4376 230.348C30.1805 231.542 28.8988 232.711 27.5914 233.849C26.5285 234.94 25.473 236.038 24.4259 237.144C23.3717 238.205 22.3148 239.262 21.2554 240.318C20.6906 240.884 20.1258 241.449 19.5439 242.032C18.3671 243.21 17.1891 244.386 16.0098 245.561C14.196 247.369 12.3876 249.183 10.5797 250.997C9.43025 252.146 8.28052 253.295 7.13045 254.443C6.58885 254.986 6.04725 255.53 5.48924 256.09C1.70638 259.849 1.70638 259.849 0.591386 259.849C0.497688 251.572 0.427122 243.295 0.384133 235.017C0.363476 231.172 0.335575 227.326 0.289628 223.481C-0.0522768 194.065 1.55807 168.764 22.9664 146.099C30.2135 139.273 38.6141 134.592 47.4386 130.133C51.5303 128.045 55.2328 125.805 58.8641 122.984C63.3805 120.016 67.3334 119.603 72.6766 119.622Z" fill="#CA5B24"/>
<path d="M189.591 52.8491C189.921 52.8491 190.251 52.8491 190.591 52.8491C191.956 76.6335 191.956 76.6335 185.318 85.2515C183.591 86.8491 183.591 86.8491 181.591 86.8491C181.344 87.571 181.096 88.2929 180.841 89.0366C179.48 92.0997 177.702 94.2625 175.591 96.8491C175.261 97.8391 174.931 98.8291 174.591 99.8491C173.931 99.8491 173.271 99.8491 172.591 99.8491C172.303 100.612 172.014 101.375 171.716 102.162C170.591 104.849 170.591 104.849 168.591 107.849C183.111 107.849 197.631 107.849 212.591 107.849C212.921 128.309 213.251 148.769 213.591 169.849C219.458 164.922 219.458 164.922 220.284 161.58C220.258 160.869 220.232 160.157 220.206 159.424C220.187 158.197 220.187 158.197 220.167 156.945C220.106 155.647 220.106 155.647 220.045 154.322C220.024 152.459 220.005 150.597 219.986 148.734C219.922 145.819 219.841 142.906 219.739 139.992C219.236 123.693 219.236 123.693 222.55 119.185C225.161 117.348 227.684 116.166 230.591 114.849C231.972 113.811 233.349 112.77 234.725 111.726C240.081 108.103 244.652 108.068 250.97 108.263C252.023 108.272 253.076 108.28 254.16 108.289C257.493 108.322 260.822 108.398 264.154 108.474C266.425 108.504 268.697 108.532 270.968 108.556C276.51 108.622 282.051 108.722 287.591 108.849C280.282 116.577 280.282 116.577 274.106 117.202C272.794 117.197 271.482 117.191 270.13 117.185C268.675 117.198 267.219 117.211 265.763 117.224C263.49 117.228 261.217 117.224 258.944 117.209C249.174 116.813 249.174 116.813 240.24 120.013C237.48 122.969 236.03 125.08 234.591 128.849C234.849 131.516 235.239 133.868 235.802 136.462C237.495 147.321 238.552 158.688 233.591 168.849C230.346 173.041 226.629 176.552 222.662 180.037C221.862 180.741 221.862 180.741 221.045 181.459C217.674 184.403 214.26 187.295 210.841 190.183C210.264 190.671 209.686 191.159 209.091 191.662C208.226 192.393 208.226 192.393 207.342 193.139C193.739 204.721 183.073 215.021 181.292 233.52C180.776 240.5 180.754 247.421 181.029 254.412C181.059 255.174 181.089 255.935 181.12 256.72C181.529 266.146 182.358 275.493 183.591 284.849C184.272 284.881 184.953 284.914 185.654 284.947C186.55 285.009 187.446 285.071 188.369 285.134C189.256 285.187 190.142 285.24 191.056 285.295C194.79 286.111 196.334 288.173 198.533 291.158C200.937 295 200.591 295.464 200.591 300.849C190.691 300.849 180.791 300.849 170.591 300.849C170.179 297.714 169.766 294.579 169.341 291.349C168.256 283.233 166.993 275.166 165.591 267.099C163.552 255.296 162.167 243.446 160.917 231.536C160.699 229.734 160.419 227.937 160.081 226.153C158.963 218.608 159.084 210.907 158.967 203.292C158.925 201.17 158.864 199.048 158.782 196.927C158.08 178.312 158.08 178.312 161.831 173.167C164.297 170.674 166.597 168.664 169.591 166.849C169.921 166.849 170.251 166.849 170.591 166.849C170.488 168.128 170.385 169.407 170.279 170.724C170.67 174.59 171.506 175.766 174.341 178.533C177.638 181.148 181.088 183.521 184.591 185.849C185.149 186.239 185.706 186.629 186.281 187.03C189.221 189.214 189.221 189.214 192.716 189.849C195.261 188.492 196.755 187.089 198.591 184.849C199.207 181.829 199.207 181.829 199.137 178.428C199.157 177.127 199.177 175.826 199.197 174.486C199.199 173.07 199.2 171.655 199.201 170.24C199.216 168.788 199.233 167.337 199.251 165.885C199.295 162.071 199.315 158.257 199.33 154.443C199.353 149.863 199.405 145.283 199.453 140.704C199.521 133.752 199.553 126.801 199.591 119.849C180.781 119.849 161.971 119.849 142.591 119.849C150.434 107.526 150.434 107.526 154.279 102.224C155.14 101.03 156.001 99.8364 156.861 98.6421C157.305 98.0264 157.749 97.4107 158.207 96.7764C160.648 93.3781 163.056 89.9567 165.466 86.5366C165.964 85.8308 166.462 85.1249 166.975 84.3977C169.59 80.691 172.201 76.9819 174.81 73.271C175.339 72.5199 175.868 71.7688 176.412 70.9949C177.412 69.5749 178.41 68.1542 179.407 66.7327C181.862 63.2461 184.349 59.7848 186.88 56.353C187.375 55.6822 187.87 55.0113 188.379 54.3201C188.779 53.8347 189.179 53.3492 189.591 52.8491Z" class="shinyGreen" fill="#11592F"/>
<path d="M34.5953 330.556C35.9143 330.56 37.2334 330.565 38.5924 330.569C42.0695 330.58 45.5462 330.61 49.0231 330.643C52.5829 330.674 56.1428 330.688 59.7027 330.703C66.6658 330.735 73.6286 330.787 80.5914 330.849C80.5914 335.469 80.5914 340.089 80.5914 344.849C78.1848 344.871 78.1848 344.871 75.7296 344.893C69.7694 344.951 63.8096 345.029 57.8497 345.112C55.2717 345.145 52.6935 345.173 50.1153 345.196C46.4065 345.229 42.6984 345.281 38.9899 345.337C37.8396 345.344 36.6894 345.35 35.5043 345.357C27.6167 345.474 27.6167 345.474 20.5914 348.849C17.4399 353.576 18.2575 358.629 18.2757 364.191C18.2789 366.21 18.2555 368.228 18.2301 370.248C18.2294 371.526 18.2288 372.805 18.2281 374.123C18.2252 375.292 18.2222 376.462 18.2191 377.667C18.6317 381.194 19.4644 383.032 21.5914 385.849C24.6591 387.894 25.2471 388.097 28.6957 388.076C29.5163 388.076 30.3369 388.076 31.1824 388.076C32.0637 388.065 32.9451 388.055 33.8531 388.044C34.7589 388.042 35.6647 388.039 36.598 388.036C39.4917 388.025 42.3852 388 45.2789 387.974C47.2405 387.964 49.2021 387.955 51.1637 387.947C55.973 387.925 60.7822 387.89 65.5914 387.849C65.5914 382.899 65.5914 377.949 65.5914 372.849C56.0214 372.849 46.4514 372.849 36.5914 372.849C36.5914 368.889 36.5914 364.929 36.5914 360.849C42.8394 360.824 49.0873 360.806 55.3353 360.794C57.4626 360.789 59.5899 360.782 61.7171 360.774C64.7677 360.762 67.8182 360.756 70.8688 360.751C72.3047 360.744 72.3047 360.744 73.7696 360.736C74.6505 360.736 75.5313 360.736 76.4388 360.736C77.2183 360.733 77.9977 360.731 78.8008 360.729C80.5914 360.849 80.5914 360.849 81.5914 361.849C81.8348 366.175 81.82 370.507 81.8316 374.84C81.8413 377.011 81.8723 379.18 81.9039 381.351C81.9105 382.74 81.9157 384.128 81.9195 385.517C81.9289 386.778 81.9382 388.039 81.9479 389.338C81.417 394.567 79.9404 397.55 76.159 401.191C70.9505 403.612 66.1882 403.421 60.5094 403.38C59.3406 403.384 58.1719 403.388 56.9677 403.392C54.4991 403.395 52.0304 403.387 49.5619 403.371C45.8022 403.349 42.0444 403.37 38.2848 403.396C35.8805 403.393 33.4762 403.388 31.0719 403.38C29.956 403.388 28.8401 403.397 27.6903 403.405C20.1885 403.316 13.4641 402.39 7.74173 397.158C2.08392 391.144 0.124945 384.786 0.122666 376.642C0.115053 375.877 0.107439 375.111 0.0995949 374.323C0.0888487 372.712 0.0859184 371.101 0.0904396 369.49C0.0914097 367.053 0.0497781 364.619 0.00547869 362.183C-0.0677334 352.617 0.508729 344.905 6.92833 337.256C14.5091 330.042 24.8362 330.437 34.5953 330.556Z" class="shinyGreen" fill="#12582F"/>
<path d="M254.591 329.849C263.544 333.43 267.188 344.898 271.21 353.052C274.232 359.175 277.367 365.235 280.529 371.287C281.038 372.262 281.547 373.238 282.071 374.243C284.475 378.841 286.896 383.429 289.361 387.994C289.782 388.776 290.203 389.559 290.637 390.365C291.419 391.816 292.207 393.265 293.001 394.71C295.591 399.516 295.591 399.516 295.591 402.849C289.651 402.849 283.711 402.849 277.591 402.849C271.591 391.099 271.591 391.099 271.591 388.849C256.081 388.849 240.571 388.849 224.591 388.849C223.931 390.829 223.271 392.809 222.591 394.849C221.271 397.489 219.951 400.129 218.591 402.849C212.651 402.849 206.711 402.849 200.591 402.849C202.53 396.481 204.932 391.023 208.279 385.287C211.468 379.685 214.562 374.072 217.404 368.287C220.992 361.039 224.608 353.806 228.279 346.599C228.826 345.503 229.373 344.406 229.936 343.277C230.466 342.244 230.995 341.21 231.541 340.146C232.008 339.221 232.476 338.297 232.957 337.344C238.391 329.047 245.475 329.103 254.591 329.849Z" fill="#0C2115"/>
<path d="M170.591 166.849C170.437 168.767 170.437 168.767 170.279 170.724C170.676 174.542 171.491 175.75 174.271 178.498C177.577 181.142 181.051 183.531 184.591 185.849C185.463 186.424 186.334 186.999 187.232 187.591C188.996 188.714 190.789 189.789 192.591 190.849C192.261 191.509 191.931 192.169 191.591 192.849C190.931 192.849 190.271 192.849 189.591 192.849C189.344 193.468 189.096 194.087 188.841 194.724C187.591 196.849 187.591 196.849 183.591 198.849C183.591 227.229 183.591 255.609 183.591 284.849C186.891 285.179 190.191 285.509 193.591 285.849C196.664 288.814 198.719 291.104 200.591 294.849C200.591 296.829 200.591 298.809 200.591 300.849C190.691 300.849 180.791 300.849 170.591 300.849C170.179 297.714 169.766 294.579 169.341 291.349C168.256 283.233 166.993 275.166 165.591 267.099C163.552 255.296 162.167 243.446 160.917 231.536C160.699 229.734 160.419 227.937 160.081 226.153C158.963 218.608 159.084 210.907 158.967 203.292C158.925 201.17 158.864 199.048 158.782 196.927C158.08 178.312 158.08 178.312 161.831 173.167C168.079 166.849 168.079 166.849 170.591 166.849Z" fill="#C75921"/>
<path d="M103.591 197.849C109.196 199.427 113.942 202.113 118.966 204.974C119.798 205.442 120.629 205.91 121.486 206.392C123.524 207.54 125.559 208.692 127.591 209.849C127.344 221.746 114.084 230.302 106.091 238.037C105.48 238.62 104.869 239.202 104.24 239.803C102.458 241.507 100.695 243.228 98.9352 244.955C98.3833 245.472 97.8313 245.99 97.2627 246.524C95.5478 248.158 95.5478 248.158 93.5914 250.849C93.6531 254.239 94.8614 256.733 96.4821 259.669C96.8589 260.365 97.2358 261.06 97.6241 261.777C98.0258 262.502 98.4276 263.227 98.8414 263.974C101.619 269.009 104.025 273.858 105.966 279.287C106.961 281.886 106.961 281.886 108.591 283.849C111.44 284.923 113.972 285.276 116.998 285.552C120.606 285.965 122.234 287.123 124.591 289.849C126.68 293.882 127.591 296.285 127.591 300.849C118.351 300.849 109.111 300.849 99.5914 300.849C95.6539 293.849 95.6539 293.849 94.3268 291.487C92.2935 287.868 90.2546 284.253 88.2008 280.646C83.7539 272.822 79.5392 264.94 75.5914 256.849C74.4685 254.598 73.3435 252.348 72.2164 250.099C71.3414 248.349 70.4664 246.599 69.5914 244.849C70.2514 243.859 70.9114 242.869 71.5914 241.849C72.2514 241.849 72.9114 241.849 73.5914 241.849C73.9214 240.859 74.2514 239.869 74.5914 238.849C75.2514 238.849 75.9114 238.849 76.5914 238.849C76.8398 238.271 77.0882 237.693 77.3441 237.098C78.7754 234.517 80.4007 232.893 82.5485 230.873C83.3316 230.118 84.1147 229.364 84.9215 228.587C86.5586 227.029 88.2017 225.477 89.8512 223.931C97.7703 216.265 101.674 208.655 103.591 197.849Z" fill="#10150F"/>
<path d="M149.892 128.361C151.084 128.368 152.275 128.375 153.503 128.382C157.304 128.41 161.103 128.473 164.904 128.537C167.483 128.562 170.061 128.584 172.64 128.605C178.958 128.656 185.273 128.754 191.591 128.849C191.591 146.009 191.591 163.169 191.591 180.849C190.271 180.189 188.951 179.529 187.591 178.849C186.819 178.495 186.047 178.141 185.252 177.776C182.601 176.349 180.65 175.059 178.591 172.849C177.483 168.676 177.734 164.754 178.029 160.474C178.09 158.798 178.09 158.798 178.152 157.087C178.258 154.337 178.405 151.595 178.591 148.849C177.931 148.849 177.271 148.849 176.591 148.849C176.326 149.441 176.06 150.032 175.787 150.642C174.558 152.911 173.308 154.368 171.466 156.162C170.928 156.694 170.389 157.226 169.834 157.775C167.904 159.56 165.937 161.273 163.943 162.986C159.092 167.211 154.602 171.766 150.091 176.349C144.972 181.55 139.832 186.62 134.293 191.375C132.305 193.098 130.432 194.908 128.591 196.787C128.014 197.373 127.436 197.96 126.841 198.564C126.429 198.988 126.016 199.412 125.591 199.849C120.751 198.084 116.308 195.654 111.779 193.224C110.991 192.804 110.202 192.384 109.39 191.951C107.456 190.919 105.524 189.884 103.591 188.849C103.591 183.899 103.591 178.949 103.591 173.849C104.7 174.415 105.809 174.981 106.951 175.564C108.414 176.305 109.878 177.046 111.341 177.787C112.071 178.16 112.801 178.533 113.552 178.917C114.261 179.275 114.97 179.633 115.701 180.001C116.675 180.496 116.675 180.496 117.669 181.001C119.687 181.891 121.397 182.574 123.591 182.849C125.716 181.076 127.487 179.375 129.341 177.349C132.594 173.89 135.854 170.565 139.459 167.47C144.644 163.007 149.356 158.1 154.119 153.195C154.798 152.504 155.477 151.814 156.177 151.103C156.786 150.477 157.395 149.851 158.023 149.207C159.591 147.849 158.591 147.349 160.591 147.349C160.591 146.689 161.591 146.529 161.591 145.849C163.241 144.199 164.891 142.549 166.591 140.849C153.391 140.849 140.191 140.849 126.591 140.849C128.571 138.539 130.551 136.229 132.591 133.849C133.286 132.89 133.982 131.93 134.698 130.942C139.394 127.545 144.252 128.235 149.892 128.361Z" fill="#0F130E"/>
<path d="M96.7165 346.716C97.9952 346.719 99.274 346.721 100.591 346.724C101.87 346.722 103.149 346.719 104.466 346.716C107.591 346.849 107.591 346.849 108.591 347.849C108.727 350.467 108.802 353.062 108.838 355.681C108.871 357.3 108.904 358.919 108.937 360.539C108.985 363.099 109.029 365.66 109.068 368.221C109.108 370.687 109.16 373.153 109.213 375.619C109.221 376.382 109.229 377.146 109.238 377.933C109.351 383.204 109.351 383.204 111.591 387.849C115.801 389.954 121.283 389.076 125.913 389.089C127.952 389.099 129.99 389.13 132.029 389.162C133.315 389.167 134.602 389.172 135.927 389.177C137.109 389.187 138.29 389.196 139.507 389.206C143.01 388.801 144.373 388.609 146.591 385.849C147.005 382.875 147.173 380.256 147.166 377.279C147.187 376.024 147.187 376.024 147.209 374.743C147.251 372.07 147.266 369.397 147.279 366.724C147.308 364.044 147.342 361.364 147.381 358.684C147.404 357.016 147.42 355.347 147.428 353.679C147.482 347.959 147.482 347.959 148.591 346.849C151.122 346.776 153.625 346.757 156.154 346.787C157.22 346.793 157.22 346.793 158.308 346.8C160.069 346.812 161.83 346.83 163.591 346.849C163.666 352.399 163.72 357.949 163.756 363.5C163.771 365.385 163.792 367.27 163.818 369.156C163.854 371.877 163.871 374.597 163.884 377.318C163.9 378.152 163.915 378.985 163.931 379.844C163.933 386.104 163.004 391.74 159.049 396.837C158.506 397.274 157.963 397.711 157.404 398.162C156.874 398.612 156.344 399.061 155.799 399.525C149.657 403.21 144.018 404.31 136.998 404.283C135.811 404.291 135.811 404.291 134.601 404.299C132.94 404.305 131.28 404.304 129.619 404.295C127.097 404.287 124.578 404.315 122.056 404.347C120.433 404.349 118.809 404.348 117.185 404.345C116.442 404.356 115.699 404.368 114.934 404.379C108.552 404.295 103.562 402.206 98.568 398.244C98.122 397.722 97.676 397.2 97.2165 396.662C96.5242 395.898 96.5242 395.898 95.818 395.119C92.5275 389.03 92.295 381.912 92.361 375.13C92.3615 374.346 92.3619 373.562 92.3624 372.755C92.3654 371.118 92.3732 369.481 92.3857 367.844C92.4041 365.328 92.4062 362.811 92.4059 360.294C92.4108 358.698 92.4167 357.102 92.4235 355.505C92.4246 354.751 92.4257 353.997 92.4269 353.22C92.4852 346.896 92.4852 346.896 96.7165 346.716Z" class="shinyGreen" fill="#175C34"/>
<path d="M219.591 192.849C220.589 196.018 220.555 198.304 220.002 201.567C219.772 202.964 219.772 202.964 219.536 204.39C219.362 205.391 219.189 206.392 219.009 207.423C218.835 208.462 218.661 209.5 218.481 210.57C218.111 212.769 217.737 214.967 217.359 217.164C216.784 220.505 216.221 223.848 215.66 227.191C215.298 229.331 214.935 231.471 214.572 233.611C214.404 234.602 214.236 235.593 214.063 236.614C213.313 240.966 212.513 245.275 211.493 249.573C210.583 253.567 210.28 257.405 210.177 261.509C210.158 262.185 210.139 262.86 210.119 263.556C210.06 265.674 210.013 267.793 209.966 269.912C209.928 271.364 209.889 272.817 209.849 274.269C209.754 277.796 209.67 281.322 209.591 284.849C211.567 284.79 213.542 284.731 215.518 284.672C220.277 285.078 223.383 288.641 226.591 291.849C227.086 296.304 227.086 296.304 227.591 300.849C220.991 300.849 214.391 300.849 207.591 300.849C207.251 298.343 207.251 298.343 206.904 295.787C205.771 289.665 203.968 285.229 198.779 281.572C197.094 280.585 195.345 279.709 193.591 278.849C192.931 278.519 192.271 278.189 191.591 277.849C186.51 224.573 186.51 224.573 197.826 210.83C204.152 203.799 211.676 197.979 219.591 192.849Z" fill="#0E130D"/>
<path d="M34.5914 163.849C34.7542 171.795 34.8783 179.739 34.9541 187.686C34.9906 191.377 35.0399 195.066 35.1195 198.756C35.196 202.323 35.2375 205.888 35.2556 209.455C35.2747 211.467 35.3293 213.478 35.3845 215.49C35.3889 225.753 35.3889 225.753 31.4447 230.341C30.1853 231.537 28.9012 232.708 27.5914 233.849C26.5286 234.94 25.4731 236.038 24.4259 237.144C23.3718 238.205 22.3149 239.263 21.2555 240.318C20.6907 240.884 20.1259 241.449 19.5439 242.032C18.3671 243.21 17.1891 244.386 16.0099 245.561C14.196 247.369 12.3877 249.183 10.5797 250.998C9.43031 252.146 8.28058 253.295 7.13051 254.443C6.31811 255.258 6.31811 255.258 5.4893 256.09C1.70644 259.849 1.70644 259.849 0.591446 259.849C0.568256 251.33 0.550498 242.811 0.539635 234.292C0.53442 230.336 0.527348 226.38 0.516006 222.425C0.505126 218.606 0.49916 214.787 0.496571 210.968C0.494726 209.512 0.491119 208.056 0.485714 206.601C0.478435 204.559 0.477458 202.517 0.477921 200.475C0.4757 199.314 0.473479 198.153 0.471191 196.956C0.580556 194.13 0.942561 191.595 1.59145 188.849C5.41644 190.467 8.93956 192.627 11.5914 195.849C12.1322 198.85 12.302 201.018 12.1774 203.994C12.1689 204.763 12.1604 205.533 12.1517 206.326C12.1182 208.773 12.043 211.216 11.9664 213.662C11.9363 215.325 11.909 216.988 11.8844 218.652C11.8184 222.719 11.715 226.783 11.5914 230.849C12.8839 229.725 14.1754 228.6 15.4664 227.474C16.1857 226.848 16.905 226.221 17.6461 225.576C20.6164 223.245 20.6164 223.245 21.7959 219.898C21.7661 218.702 21.7661 218.702 21.7357 217.482C21.7201 216.577 21.7045 215.672 21.6884 214.739C21.6539 213.264 21.6539 213.264 21.6188 211.759C21.605 209.674 21.594 207.589 21.5856 205.503C21.5653 202.217 21.5296 198.935 21.4442 195.65C20.9584 175.408 20.9584 175.408 26.5518 169.273C32.4146 163.849 32.4146 163.849 34.5914 163.849Z" class="shinyGreen" fill="#145931"/>
<path d="M229.591 90.8492C231.425 91.6527 233.231 92.519 235.013 93.4312C236.039 93.9514 237.065 94.4715 238.123 95.0074C239.185 95.5533 240.247 96.0992 241.341 96.6617C248.353 100.241 255.351 103.754 262.591 106.849C262.591 107.179 262.591 107.509 262.591 107.849C261.977 107.843 261.363 107.836 260.731 107.83C245.735 107.253 245.735 107.253 232.884 113.767C230.591 115.849 230.591 115.849 228.354 116.69C225.22 118.063 223.673 119.095 221.591 121.849C220.015 128.598 220.739 135.915 220.966 142.787C221.051 145.671 221.122 148.552 221.15 151.437C221.168 153.228 221.218 155.018 221.306 156.806C221.35 160.545 221.267 162.918 219.028 166.005C217.293 167.774 215.582 169.375 213.591 170.849C213.261 170.849 212.931 170.849 212.591 170.849C212.591 150.059 212.591 129.269 212.591 107.849C198.071 107.849 183.551 107.849 168.591 107.849C170.591 102.849 170.591 102.849 172.591 100.849C175.445 100.594 175.445 100.594 179.068 100.576C180.379 100.555 181.69 100.535 183.041 100.513C185.121 100.491 187.2 100.474 189.28 100.468C197.513 100.429 203.54 100.234 210.591 95.8492C212.33 95.1142 214.079 94.4008 215.841 93.7242C218.206 92.8129 220.396 91.9655 222.576 90.6695C225.313 89.5554 226.746 90.1016 229.591 90.8492Z" fill="#F9FAF8"/>
<path d="M175.591 330.849C181.201 330.849 186.811 330.849 192.591 330.849C192.591 354.609 192.591 378.369 192.591 402.849C186.981 402.849 181.371 402.849 175.591 402.849C175.591 379.089 175.591 355.329 175.591 330.849Z" fill="#0A2014"/>
<path d="M161.591 232.849C163.63 234.123 165.63 235.46 167.591 236.849C167.591 237.509 167.591 238.169 167.591 238.849C168.123 239.094 168.654 239.339 169.201 239.591C175.409 242.858 180.793 246.161 183.591 252.849C185.161 263.391 184.326 274.258 183.591 284.849C184.272 284.881 184.953 284.914 185.654 284.947C186.55 285.009 187.446 285.071 188.369 285.134C189.699 285.214 189.699 285.214 191.056 285.295C194.79 286.111 196.334 288.173 198.533 291.158C200.937 295 200.591 295.464 200.591 300.849C190.691 300.849 180.791 300.849 170.591 300.849C170.179 297.714 169.766 294.579 169.341 291.349C168.247 283.147 166.955 274.999 165.529 266.849C163.568 255.559 162.446 244.271 161.591 232.849Z" fill="#10140E"/>
<path d="M28.5914 243.849C30.9014 245.829 33.2114 247.809 35.5914 249.849C36.8946 250.878 36.8946 250.878 38.224 251.927C41.7987 254.997 44.2444 257.318 45.3068 262.006C45.4752 265.517 45.381 268.904 45.1539 272.412C45.1133 273.611 45.0727 274.811 45.0309 276.046C44.9255 278.985 44.7782 281.915 44.5914 284.849C46.012 285.055 46.012 285.055 47.4613 285.265C50.7556 285.88 51.9888 286.557 54.4039 288.787C54.9879 289.311 55.5718 289.836 56.1735 290.376C59.5484 293.882 58.5914 295.179 58.5914 300.849C48.6914 300.849 38.7914 300.849 28.5914 300.849C28.5914 282.039 28.5914 263.229 28.5914 243.849Z" fill="#10140F"/>
<path d="M219.591 192.849C221.09 196.872 220.274 200.744 219.658 204.869C219.542 205.645 219.427 206.422 219.308 207.223C219.058 208.865 218.803 210.506 218.543 212.147C218.285 213.816 218.041 215.487 217.813 217.16C215.675 232.839 215.675 232.839 210.642 237.208C209.309 238.115 207.961 238.999 206.591 239.849C204.437 241.979 202.345 244.152 200.256 246.345C198.591 247.849 198.591 247.849 196.591 247.849C196.591 248.509 196.591 249.169 196.591 249.849C194.091 251.474 192.091 251.474 189.591 252.849C185.238 228.421 186.999 226.887 192.591 217.16C199.787 207.106 206.591 200.349 219.591 192.849Z" fill="#C65923"/>
<path d="M259.591 5.84912C263.18 16.615 258.681 26.9069 255.091 37.0366C254.56 38.5758 254.03 40.1155 253.502 41.6558C252.216 45.3932 250.909 49.1229 249.591 52.8491C247.922 52.1898 246.256 51.5217 244.591 50.8491C243.5 50.4177 243.5 50.4177 242.386 49.9775C240.031 48.8148 238.394 47.7735 236.591 45.8491C235.412 41.8701 235.518 38.0962 235.654 33.9741C235.631 32.9106 235.609 31.8472 235.586 30.7515C235.654 25.4742 235.943 21.8038 239.693 17.8999C240.957 16.8389 242.257 15.8199 243.591 14.8491C244.509 14.169 244.509 14.169 245.446 13.4751C247.231 12.222 249.048 11.0578 250.904 9.91162C251.523 9.51395 252.143 9.11627 252.781 8.70654C257.31 5.84912 257.31 5.84912 259.591 5.84912Z" fill="#10140E"/>
<path d="M228.591 11.8491C231.457 45.8516 231.457 45.8516 226.857 53.874C222.366 58.4335 216.773 61.2615 210.591 62.8491C209.931 62.8491 209.271 62.8491 208.591 62.8491C207.808 45.5468 209.375 32.8374 220.591 18.8491C221.082 18.2188 221.574 17.5884 222.08 16.939C226.159 11.8491 226.159 11.8491 228.591 11.8491Z" fill="#FDFCFA"/>
<path d="M247.591 344.849C251.707 348.331 253.459 352.342 255.591 357.162C257.52 361.452 259.427 365.662 261.841 369.705C263.591 372.849 263.591 372.849 263.591 375.849C253.361 375.849 243.131 375.849 232.591 375.849C234.841 367.976 234.841 367.976 236.65 364.658C237.036 363.94 237.422 363.223 237.82 362.484C238.219 361.759 238.618 361.034 239.029 360.287C239.82 358.827 240.61 357.368 241.4 355.908C241.775 355.219 242.15 354.531 242.536 353.821C243.496 352.027 244.408 350.207 245.314 348.384C246.591 345.849 246.591 345.849 247.591 344.849Z" fill="#F3F5F4"/>
<path d="M255.16 305.019C258.669 305.138 262.105 305.426 265.591 305.849C264.152 310.144 261.995 313.082 259.091 316.537C258.297 317.489 257.503 318.442 256.685 319.423C254.591 321.849 254.591 321.849 252.591 323.849C249.552 324.044 249.552 324.044 245.966 323.974C244.778 323.956 243.589 323.938 242.365 323.919C241.45 323.896 240.534 323.873 239.591 323.849C245.595 305.253 245.595 305.253 255.16 305.019Z" fill="#0A1E13"/>
<path d="M151.591 185.849C151.591 194.759 151.591 203.669 151.591 212.849C146.82 211.259 143.066 209.621 138.716 207.224C137.564 206.592 136.412 205.961 135.224 205.31C133.921 204.587 133.921 204.587 132.591 203.849C147.461 185.849 147.461 185.849 151.591 185.849Z" class="shinyGreen" fill="#0F582F"/>
<path d="M11.5914 196.849C13.4185 197.839 15.2455 198.829 17.1279 199.849C18.6417 200.661 18.6417 200.661 20.186 201.49C23.8235 204.953 23.636 207.971 23.5641 212.599C23.5603 213.406 23.5566 214.213 23.5527 215.044C23.3107 220.15 22.4991 223.214 18.3736 226.974C14.4261 229.849 14.4261 230.849 11.5914 230.849C11.5914 219.959 11.5914 208.069 11.5914 196.849Z" fill="#F9FAF8"/>
<path d="M118.591 148.849C128.161 148.849 137.731 148.849 147.591 148.849C140.841 156.724 140.841 156.724 137.591 159.849C133.499 158.311 129.697 156.408 125.841 154.349C124.692 153.741 123.542 153.132 122.357 152.505C119.591 150.849 119.591 150.849 118.591 148.849Z" fill="#C35B20"/>
<path d="M284.591 90.8491C288.899 92.4155 292.653 94.5325 296.591 96.8491C295.198 101.284 292.986 103.723 289.591 106.849C283.716 102.099 283.716 102.099 282.591 99.8491C282.333 95.7977 282.287 94.3057 284.591 90.8491Z" fill="#10120C"/>
<path d="M244.279 73.724C245.77 73.7511 245.77 73.7511 247.291 73.7787C248.05 73.8019 248.809 73.8251 249.591 73.849C252.814 79.0248 252.814 79.0248 253.591 80.849C253.261 81.839 252.931 82.829 252.591 83.849C250.694 83.0832 248.798 82.3111 246.904 81.5365C245.32 80.8926 245.32 80.8926 243.705 80.2357C240.838 78.9587 238.241 77.525 235.591 75.849C239.012 73.5684 240.273 73.6298 244.279 73.724Z" fill="#15110A"/>
<path d="M170.591 289.849C170.921 289.849 171.251 289.849 171.591 289.849C171.921 292.819 172.251 295.789 172.591 298.849C181.171 298.849 189.751 298.849 198.591 298.849C198.591 297.529 198.591 296.209 198.591 294.849C199.251 294.849 199.911 294.849 200.591 294.849C200.591 296.829 200.591 298.809 200.591 300.849C190.691 300.849 180.791 300.849 170.591 300.849C170.591 297.219 170.591 293.589 170.591 289.849Z" fill="#2B2C2B"/>
<path d="M228.591 11.8491C228.591 24.7191 228.591 37.5891 228.591 50.8491C228.261 50.8491 227.931 50.8491 227.591 50.8491C227.096 33.5241 227.096 33.5241 226.591 15.8491C224.611 17.8291 222.631 19.8091 220.591 21.8491C219.931 21.5191 219.271 21.1891 218.591 20.8491C219.712 19.5332 220.838 18.2215 221.966 16.9116C222.593 16.1807 223.219 15.4498 223.865 14.6968C226.526 11.8491 226.526 11.8491 228.591 11.8491Z" fill="#FEFDF4"/>
<path d="M193.591 189.849C193.591 190.839 193.591 191.829 193.591 192.849C192.456 193.785 191.283 194.674 190.091 195.537C187.063 198.335 186.614 199.597 186.232 203.794C186.246 205.987 186.341 208.151 186.5 210.338C186.623 212.171 186.616 214.012 186.591 215.849C185.106 216.839 185.106 216.839 183.591 217.849C183.446 214.766 183.357 211.684 183.279 208.599C183.237 207.726 183.195 206.854 183.152 205.955C183.027 199.436 183.027 199.436 185.935 196.412C186.812 195.896 187.688 195.38 188.591 194.849C190.277 193.201 191.948 191.539 193.591 189.849Z" fill="#2B5529"/>
<path d="M207.591 291.849C207.921 291.849 208.251 291.849 208.591 291.849C208.921 294.159 209.251 296.469 209.591 298.849C217.511 298.354 217.511 298.354 225.591 297.849C225.921 296.529 226.251 295.209 226.591 293.849C226.921 296.159 227.251 298.469 227.591 300.849C220.991 300.849 214.391 300.849 207.591 300.849C207.591 297.879 207.591 294.909 207.591 291.849Z" fill="#1F201E"/>
<path d="M28.5914 141.849C29.2514 142.179 29.9114 142.509 30.5914 142.849C26.3014 147.139 22.0114 151.429 17.5914 155.849C16.9314 155.519 16.2714 155.189 15.5914 154.849C17.3795 152.867 19.1717 150.888 20.9664 148.912C21.4743 148.348 21.9822 147.784 22.5055 147.203C26.3649 142.962 26.3649 142.962 28.5914 141.849Z" fill="#C3622B"/>
<path d="M290.591 106.849C288.591 108.849 288.591 108.849 286.069 108.984C285.033 108.932 283.996 108.88 282.927 108.826C281.806 108.774 280.684 108.723 279.529 108.669C278.353 108.605 277.178 108.541 275.966 108.474C274.191 108.389 274.191 108.389 272.38 108.302C269.45 108.16 266.521 108.009 263.591 107.849C263.591 107.519 263.591 107.189 263.591 106.849C267.529 106.652 271.466 106.468 275.404 106.287C276.523 106.231 277.643 106.174 278.797 106.117C279.87 106.068 280.943 106.02 282.048 105.97C283.533 105.9 283.533 105.9 285.048 105.827C287.591 105.849 287.591 105.849 290.591 106.849Z" fill="#B56635"/>
<path d="M219.591 192.849C220.216 194.662 220.216 194.662 220.591 196.849C219.601 198.334 219.601 198.334 218.591 199.849C218.261 199.189 217.931 198.529 217.591 197.849C215.941 199.169 214.291 200.489 212.591 201.849C214.146 198.032 216.627 195.657 219.591 192.849Z" fill="#B75516"/>
</svg>
